<?xml version="1.0" standalone="no"?>
<!DOCTYPE svg PUBLIC "-//W3C//DTD SVG 20010904//EN"
 "http://www.w3.org/TR/2001/REC-SVG-20010904/DTD/svg10.dtd">
<svg version="1.0" xmlns="http://www.w3.org/2000/svg"
 width="310.000000pt" height="342.000000pt" viewBox="0 0 310.000000 342.000000"
 preserveAspectRatio="xMidYMid meet">

<g transform="translate(0.000000,342.000000) scale(0.100000,-0.100000)"
fill="#000000" stroke="none">
<path d="M495 3366 c-95 -44 -159 -115 -252 -280 -48 -84 -81 -116 -118 -116
-24 0 -39 7 -49 22 -13 18 -16 19 -16 5 0 -9 9 -26 21 -38 16 -16 30 -20 66
-17 l45 3 -7 -39 c-8 -54 -25 -85 -58 -110 -27 -20 -29 -20 -58 -4 -16 9 -29
13 -29 8 0 -13 42 -40 63 -40 18 0 18 -1 -1 -27 -40 -57 -36 -110 10 -134 22
-12 23 -11 5 8 -23 26 -22 68 3 93 32 32 40 24 40 -35 0 -103 -57 -158 -112
-108 -10 9 -18 11 -18 5 0 -6 11 -19 25 -28 40 -26 82 -13 145 45 30 27 56 48
58 46 2 -1 -6 -21 -17 -44 -30 -57 -28 -125 4 -156 14 -15 35 -25 52 -24 l28
0 -24 10 c-53 21 -63 60 -29 120 24 43 38 50 38 19 0 -10 9 -42 20 -70 20 -51
26 -116 12 -136 -12 -19 -50 -34 -68 -27 -12 4 -15 3 -10 -5 4 -7 23 -12 42
-12 43 0 79 35 89 88 l8 37 14 -50 c8 -27 15 -93 16 -145 0 -112 -16 -167 -99
-330 -62 -121 -86 -224 -104 -448 -6 -73 -15 -154 -21 -180 -5 -26 -11 -54
-12 -62 -2 -17 78 -37 156 -39 26 -1 47 -3 47 -6 0 -3 -20 -40 -44 -83 -59
-101 -70 -143 -96 -357 -25 -199 -43 -256 -91 -281 -40 -20 -69 -70 -69 -119
0 -35 -9 -77 -36 -172 -11 -39 11 -25 25 15 17 48 59 122 70 122 5 0 11 -39
13 -87 2 -52 10 -97 19 -111 31 -50 149 -76 173 -39 9 16 5 24 -33 57 -43 38
-44 39 -37 87 9 70 120 504 150 588 27 77 28 76 51 -40 9 -44 25 -120 36 -170
24 -105 19 -161 -17 -204 -33 -40 -39 -80 -20 -138 9 -26 17 -81 18 -120 4
-96 22 -94 26 3 3 114 27 144 53 66 38 -118 72 -152 151 -152 76 0 106 18 92
54 -6 16 -47 36 -74 36 -11 0 -24 8 -29 19 -14 25 -38 216 -55 441 -15 179
-10 405 10 542 6 45 7 46 48 52 62 10 108 40 101 68 -3 13 -23 129 -45 258
-41 245 -60 409 -60 522 l0 67 93 3 c87 3 96 1 161 -29 37 -18 70 -33 72 -33
10 0 2 25 -12 41 -9 10 -13 23 -9 28 12 21 31 11 48 -24 11 -23 24 -35 37 -35
17 0 19 4 14 25 -8 31 -6 31 35 1 30 -22 35 -23 48 -10 13 13 12 17 -13 37
-83 66 -107 77 -174 77 -36 0 -115 8 -177 17 l-113 17 0 30 c1 60 17 115 43
146 29 34 43 86 33 125 -4 14 -50 68 -104 119 -96 94 -97 95 -97 143 0 26 6
63 14 82 14 32 16 33 55 26 23 -4 50 -7 60 -7 22 1 38 21 29 36 -3 5 2 15 12
22 10 7 18 25 18 39 0 14 2 25 6 25 3 0 13 4 21 10 12 7 11 12 -5 31 -14 16
-16 23 -7 26 6 3 9 10 5 16 -4 7 -6 42 -4 79 1 37 0 76 -3 86 -4 11 -40 45
-81 76 -106 82 -154 93 -240 52z"/>
<path d="M2028 2294 c-15 -8 -31 -26 -34 -39 -3 -14 -10 -25 -15 -25 -5 0 -6
-7 -3 -15 4 -8 2 -21 -4 -28 -5 -6 -13 -27 -17 -45 -4 -19 -19 -42 -36 -55
-25 -18 -28 -23 -15 -32 11 -8 12 -20 5 -55 -13 -68 -13 -68 46 -85 64 -19 71
-27 52 -57 -8 -13 -20 -39 -26 -58 -7 -24 -29 -49 -67 -79 -31 -24 -62 -59
-70 -77 -11 -26 -25 -37 -69 -53 -31 -12 -63 -21 -71 -21 -9 0 -64 34 -124 76
-111 78 -127 98 -114 148 3 13 1 33 -5 45 -10 17 -7 22 16 33 38 18 69 82 57
116 -16 44 -30 35 -61 -40 -26 -60 -35 -74 -56 -76 -21 -3 -26 2 -32 27 -8 40
-31 40 -38 1 -6 -25 -11 -30 -37 -30 -20 0 -30 -5 -30 -15 0 -9 -9 -15 -21
-15 -19 0 -20 -4 -14 -42 12 -70 43 -99 118 -113 l35 -7 -15 -54 -16 -54 69
-76 c38 -42 89 -90 112 -108 l44 -31 153 -3 153 -4 6 -46 c3 -26 8 -99 12
-163 l6 -115 -208 -58 c-115 -32 -219 -65 -232 -73 -31 -19 -62 -72 -62 -106
0 -15 33 -105 74 -200 93 -216 165 -380 170 -384 1 -2 24 1 49 6 27 5 47 5 47
0 0 -14 -81 -69 -102 -69 -38 0 -88 -28 -88 -50 0 -21 3 -21 169 -19 93 1 173
-1 177 -3 5 -3 35 -3 67 -1 56 5 57 6 57 36 0 52 -22 108 -47 120 -13 6 -26
22 -29 36 -7 32 -34 84 -140 271 -46 79 -81 146 -80 148 2 1 57 7 122 12 66 5
142 12 169 15 l50 5 0 -283 c0 -242 3 -290 18 -339 14 -47 22 -59 43 -64 36
-9 154 1 364 30 297 42 310 45 321 74 7 17 13 22 20 15 17 -17 -15 -81 -45
-89 -14 -3 -26 -13 -26 -20 0 -12 17 -14 87 -12 86 3 87 3 110 36 12 19 25 54
29 80 4 26 15 58 25 72 15 21 45 130 37 134 -52 29 -104 33 -187 12 -61 -16
-499 -71 -506 -64 -2 2 2 29 10 59 24 92 55 287 55 348 0 53 2 57 30 69 50 22
44 56 -62 382 l-51 155 -3 155 c-4 215 -33 328 -103 394 -18 17 -31 40 -31 53
0 14 4 22 8 19 27 -17 109 189 98 248 -10 51 -74 101 -157 121 -79 18 -106 18
-141 -1z"/>
<path d="M1340 1995 c0 -5 5 -17 10 -25 5 -8 10 -10 10 -5 0 6 -5 17 -10 25
-5 8 -10 11 -10 5z"/>
<path d="M1294 1961 c21 -23 26 -26 26 -11 0 5 -10 15 -22 21 -23 12 -23 12
-4 -10z"/>
<path d="M1430 1960 c-9 -6 -10 -10 -3 -10 6 0 15 5 18 10 8 12 4 12 -15 0z"/>
</g>
</svg>
