<?xml version="1.0" standalone="no"?>
<!DOCTYPE svg PUBLIC "-//W3C//DTD SVG 20010904//EN"
 "http://www.w3.org/TR/2001/REC-SVG-20010904/DTD/svg10.dtd">
<svg version="1.0" xmlns="http://www.w3.org/2000/svg"
 width="700.000000pt" height="1001.000000pt" viewBox="0 0 700.000000 1001.000000"
 preserveAspectRatio="xMidYMid meet">

<g transform="translate(0.000000,1001.000000) scale(0.100000,-0.100000)"
fill="#000000" stroke="none">
<path d="M4210 9999 c-87 -14 -207 -80 -284 -156 -115 -113 -176 -214 -209
-348 -24 -96 -30 -161 -17 -199 12 -38 34 -50 73 -41 24 6 26 3 52 -82 38
-129 42 -136 89 -176 37 -30 45 -44 54 -93 7 -31 12 -89 12 -127 l0 -69 43 5
c23 3 54 8 70 12 24 7 29 4 42 -29 8 -20 22 -36 30 -36 8 0 15 -9 15 -20 0
-10 10 -24 23 -31 12 -6 47 -38 78 -70 49 -52 60 -59 93 -59 34 0 46 8 114 75
l75 76 38 -27 c22 -15 39 -34 39 -43 0 -55 -52 -276 -81 -341 -38 -87 -52
-108 -43 -63 3 18 3 44 0 58 -12 47 -32 27 -62 -62 l-29 -88 -6 127 c-5 126
-14 158 -45 158 -10 0 -14 -15 -15 -52 l-1 -53 -14 46 c-14 44 -58 99 -70 86
-3 -3 -1 -57 5 -119 14 -141 14 -220 1 -267 -5 -20 -13 -134 -18 -253 -4 -120
-11 -220 -14 -223 -3 -4 -37 18 -75 49 -37 30 -115 83 -173 118 -134 81 -190
135 -213 209 -21 70 -49 251 -39 260 4 4 30 12 57 17 67 14 116 36 139 61 14
16 17 28 11 58 -4 21 -7 64 -7 96 1 56 0 59 -28 69 -28 9 -29 11 -14 34 18 27
13 51 -13 61 -10 3 -26 13 -36 21 -15 13 -15 18 -4 36 34 53 29 96 -12 96 -14
0 -45 9 -69 20 -40 18 -42 21 -31 42 9 19 9 21 -2 11 -21 -21 -29 -16 -50 32
-15 34 -19 56 -14 89 6 34 2 54 -16 92 -32 69 -33 72 -9 44 12 -14 30 -43 41
-65 16 -33 18 -35 14 -12 -9 43 -46 96 -109 155 -93 88 -203 125 -301 101 -27
-6 -97 -13 -155 -14 -240 -5 -396 -85 -504 -258 -111 -179 -122 -356 -41 -634
52 -177 46 -243 -43 -413 -61 -117 -71 -175 -46 -257 l18 -58 6 66 c4 36 12
81 20 100 15 39 81 151 86 146 2 -1 -10 -44 -27 -95 -59 -186 -60 -321 -3
-434 28 -56 39 -59 24 -7 -14 47 -11 166 5 214 l13 40 1 -79 c1 -90 21 -178
57 -249 14 -27 73 -119 131 -204 147 -217 162 -257 126 -326 -15 -30 -15 -31
1 -18 32 27 49 72 43 120 l-5 45 19 -25 c54 -71 117 -230 120 -304 1 -29 1
-30 9 -5 13 40 11 113 -4 163 -19 64 -2 50 20 -16 19 -56 24 -145 11 -217 l-8
-45 26 30 c47 54 68 106 73 182 7 114 -41 248 -143 397 -25 38 -41 65 -35 61
26 -16 115 -147 153 -225 36 -75 42 -95 45 -170 3 -68 0 -96 -16 -138 -26 -67
-12 -76 39 -26 63 61 89 124 89 213 0 41 3 72 6 68 8 -7 7 -161 -1 -190 l-6
-22 20 22 19 23 6 -48 c3 -26 9 -73 12 -106 l7 -59 -46 7 c-47 7 -77 -8 -77
-40 0 -9 -7 -23 -16 -32 -13 -12 -15 -26 -9 -61 4 -25 9 -80 11 -121 2 -41 6
-80 8 -86 2 -6 -30 -28 -72 -48 -447 -221 -935 -655 -1187 -1058 -71 -113 -79
-147 -44 -192 l22 -27 -33 -34 c-38 -39 -35 -61 10 -78 17 -6 30 -15 30 -20 0
-12 -84 -141 -139 -212 -25 -33 -92 -106 -148 -162 -70 -68 -103 -108 -103
-124 0 -13 16 -37 40 -59 22 -20 40 -41 40 -46 0 -5 -25 -34 -55 -64 -30 -30
-55 -58 -55 -62 0 -5 11 -13 25 -20 l24 -11 -21 -41 c-33 -65 -170 -266 -285
-419 -116 -153 -116 -153 -52 -194 66 -42 88 -64 83 -78 -4 -8 1 -18 10 -21 9
-3 16 -14 16 -24 0 -10 14 -30 31 -45 27 -22 40 -26 83 -23 52 2 96 -15 96
-39 0 -7 12 -15 28 -19 57 -12 112 -36 106 -46 -17 -27 -13 -87 7 -112 44 -56
209 -116 281 -102 42 8 63 29 73 73 3 18 9 33 12 33 3 0 26 -12 50 -27 44 -27
44 -29 39 -70 l-6 -43 53 0 c33 0 67 -7 92 -20 23 -12 59 -20 85 -20 25 0 73
-3 106 -6 60 -6 61 -6 68 21 6 25 10 27 44 20 54 -9 143 -38 139 -44 -23 -42
-74 -162 -93 -221 -48 -147 -104 -491 -104 -642 0 -105 -53 -434 -88 -547 -20
-64 -69 -121 -104 -121 -36 0 -105 -48 -170 -118 -57 -62 -81 -113 -71 -151
16 -60 -43 -338 -111 -530 -20 -55 -20 -61 2 -61 13 0 34 39 87 165 78 183 99
219 115 195 23 -37 34 -124 35 -277 l0 -162 28 -29 c47 -49 222 -122 334 -140
26 -4 -568 -9 -1322 -12 -753 -3 207 -5 2135 -5 1928 0 2992 2 2365 5 -627 3
-1116 9 -1087 13 30 4 97 25 150 46 125 50 170 58 179 34 3 -10 17 -30 31 -45
19 -21 32 -26 56 -23 17 2 90 7 161 10 191 9 176 0 176 114 0 205 -1 198 41
210 20 7 39 15 42 20 8 12 -12 477 -29 701 -37 474 -75 701 -226 1370 l-54
235 1 285 c1 305 9 417 84 1150 22 212 44 446 50 520 6 74 13 144 15 155 4 17
22 23 131 43 70 12 130 24 132 27 6 6 -26 376 -49 555 -47 373 -130 774 -204
989 -35 103 -35 230 0 345 64 211 140 594 181 908 46 359 24 610 -71 798 -54
109 -90 156 -194 259 -53 51 -96 99 -97 105 0 6 -2 16 -2 21 -3 19 -184 160
-202 157 -12 -2 -27 16 -53 65 -49 94 -67 172 -67 291 0 161 -25 252 -110 393
-66 109 -121 163 -206 205 -65 33 -84 37 -147 37 -39 0 -88 -1 -107 -3 -19 -2
-55 -1 -80 2 -25 3 -70 2 -100 -3z m-920 -3438 c-5 -11 -15 -23 -21 -27 -6 -3
-3 5 6 20 20 30 30 35 15 7z m864 -4067 c10 -4 16 -18 16 -38 0 -60 10 -76 45
-76 43 0 58 20 53 70 -2 22 -1 40 2 40 3 0 16 -21 30 -48 l25 -47 54 2 c65 3
81 15 81 60 0 34 1 35 31 29 17 -3 42 -6 54 -6 25 0 32 -27 80 -337 60 -393
69 -505 70 -878 0 -365 -7 -454 -56 -748 -20 -120 -19 -137 7 -137 28 0 13
-18 -33 -40 -62 -30 -163 -57 -270 -71 -101 -15 -128 -33 -138 -95 -6 -36 -3
-44 17 -58 40 -28 174 -75 255 -90 74 -14 64 -14 -232 -14 -223 0 -293 3 -248
9 98 14 136 30 147 61 12 35 -11 70 -72 108 -127 77 -137 97 -152 298 -13 183
-42 414 -69 555 -28 146 -40 269 -51 537 -5 129 -17 357 -25 505 -20 357 -20
406 1 398 8 -3 19 -16 24 -28 6 -15 23 -26 55 -35 25 -7 50 -21 56 -31 10 -19
69 -28 69 -10 0 5 20 5 45 0 25 -5 51 -6 59 -3 8 3 17 27 20 57 4 28 13 55 19
59 15 9 12 9 31 2z m-829 -759 c55 -178 62 -206 94 -370 41 -208 45 -255 31
-316 -10 -41 -19 -55 -45 -70 -57 -34 -133 -170 -142 -253 -4 -40 0 -68 20
-123 36 -100 55 -212 67 -397 6 -88 13 -162 15 -164 2 -3 10 -2 18 1 11 4 15
47 21 192 3 105 11 196 17 208 11 20 12 20 40 -14 45 -54 85 -136 114 -234 15
-49 32 -101 38 -113 13 -27 49 -48 104 -61 24 -6 -137 -9 -441 -10 -477 -1
-479 -1 -461 19 27 30 14 83 -35 141 -77 91 -86 148 -45 270 36 103 119 440
145 584 31 170 57 267 159 577 49 150 111 341 137 423 l47 150 32 -160 c18
-88 49 -214 70 -280z"/>
</g>
</svg>
