<?xml version="1.0" standalone="no"?>
<!DOCTYPE svg PUBLIC "-//W3C//DTD SVG 20010904//EN"
 "http://www.w3.org/TR/2001/REC-SVG-20010904/DTD/svg10.dtd">
<svg version="1.0" xmlns="http://www.w3.org/2000/svg"
 width="320.000000pt" height="640.000000pt" viewBox="0 0 320.000000 640.000000"
 preserveAspectRatio="xMidYMid meet">

<g transform="translate(0.000000,640.000000) scale(0.100000,-0.100000)"
fill="#000000" stroke="none">
<path d="M2008 6373 l-28 -27 -51 18 c-40 15 -56 16 -75 8 -17 -8 -40 -9 -76
-2 -46 9 -56 8 -78 -8 -14 -11 -35 -22 -47 -26 -12 -4 -25 -15 -28 -25 -3 -11
-19 -24 -36 -31 -17 -7 -59 -34 -94 -60 -36 -26 -76 -51 -90 -54 -21 -5 -25
-11 -20 -27 5 -14 -3 -30 -25 -55 -37 -43 -36 -68 3 -72 22 -3 27 -7 22 -20
-33 -87 -25 -153 17 -131 14 7 23 7 33 -1 10 -8 18 -6 34 11 l21 22 15 -36
c19 -46 19 -117 1 -162 -22 -51 -50 -47 -125 20 -36 32 -77 58 -100 65 -21 5
-51 20 -67 33 -51 39 -191 21 -285 -39 -74 -46 -127 -136 -144 -244 -12 -75
-25 -88 -97 -93 -35 -3 -80 -9 -101 -12 -33 -6 -42 -4 -68 21 -33 31 -49 26
-30 -10 18 -32 52 -46 113 -46 44 0 49 -2 43 -17 -11 -29 -23 -66 -30 -98 l-7
-30 -15 30 c-20 40 -42 56 -68 49 -13 -3 -27 2 -39 15 -20 22 -46 28 -46 12 0
-6 4 -12 9 -15 5 -4 21 -36 35 -74 29 -76 64 -119 104 -128 46 -10 53 -14 47
-24 -17 -28 -81 -1 -140 59 -52 54 -83 58 -49 6 14 -21 14 -28 4 -41 -19 -22
-50 -37 -90 -44 -52 -8 -47 -34 8 -38 23 -2 42 -6 42 -10 0 -4 -11 -24 -25
-45 -24 -34 -37 -41 -90 -49 -11 -2 -20 -10 -20 -18 0 -12 20 -16 90 -21 50
-3 100 -11 112 -17 29 -16 53 -15 73 3 16 15 17 12 7 -37 -5 -29 -16 -60 -24
-68 -13 -13 -17 -12 -36 15 -55 74 -98 95 -127 60 -10 -12 -9 -16 6 -21 35
-10 49 -21 64 -47 19 -33 7 -44 -24 -23 -34 22 -46 20 -46 -5 0 -30 62 -89 93
-89 14 0 29 -4 32 -10 4 -6 -11 -10 -38 -10 -37 0 -53 6 -87 35 -23 19 -46 35
-51 35 -41 0 59 -103 109 -113 33 -7 77 3 150 32 68 27 72 27 72 -6 0 -16 11
-52 25 -81 30 -65 31 -83 5 -107 -23 -21 -28 -70 -6 -62 10 4 15 -6 20 -32 3
-21 15 -50 26 -64 11 -14 25 -40 31 -57 6 -16 17 -30 25 -30 27 0 27 32 1 84
-25 52 -25 53 -8 91 22 50 37 31 20 -26 -12 -37 -11 -43 6 -55 10 -8 26 -14
36 -14 25 0 41 -25 33 -54 -4 -18 -2 -28 9 -32 23 -8 103 31 118 58 13 24 84
98 95 98 4 0 -1 -11 -10 -25 -9 -13 -16 -27 -16 -30 0 -12 21 -4 41 16 15 15
20 31 18 62 -2 23 1 44 5 47 4 3 22 -33 40 -80 19 -47 56 -137 84 -200 56
-126 87 -257 79 -327 -4 -42 -13 -54 -110 -152 -130 -131 -152 -169 -145 -254
3 -34 14 -79 23 -99 l18 -37 -50 -133 c-28 -73 -63 -187 -77 -253 -32 -143
-64 -258 -117 -420 -55 -171 -77 -282 -95 -478 -21 -243 -39 -295 -147 -418
-88 -101 -85 -95 -55 -119 15 -11 36 -36 48 -55 33 -54 100 -88 170 -88 47 0
68 6 111 31 87 51 158 86 164 80 6 -5 -66 -198 -134 -361 -22 -54 -50 -130
-62 -170 -30 -102 -46 -125 -110 -157 -54 -28 -56 -30 -98 -128 -23 -55 -58
-119 -78 -141 -33 -39 -39 -71 -12 -71 7 0 36 20 65 45 28 25 59 45 67 45 28
0 28 -37 1 -102 -44 -104 -31 -187 33 -217 39 -18 92 -24 108 -11 12 10 11 18
-7 54 l-20 43 37 89 c21 49 51 130 67 179 17 50 39 110 50 135 30 68 259 411
272 407 16 -5 54 -435 42 -481 -4 -15 -24 -46 -45 -69 -54 -59 -61 -76 -54
-138 3 -38 -1 -79 -17 -138 -23 -89 -21 -111 7 -111 12 0 31 24 56 71 27 49
43 69 54 67 25 -5 51 -56 67 -131 7 -38 22 -77 31 -87 34 -37 131 -51 208 -29
68 19 61 47 -28 104 l-52 33 -11 168 c-21 295 -18 343 44 719 31 187 60 350
65 362 8 21 15 23 72 23 35 0 88 -5 118 -11 50 -10 60 -9 117 15 73 31 140 35
148 9 13 -43 38 -92 72 -142 l37 -53 0 -112 c0 -61 -4 -159 -9 -217 -10 -116
-3 -152 39 -209 28 -38 27 -54 -16 -144 -27 -56 -27 -61 -13 -94 8 -20 19 -41
25 -48 6 -7 9 -28 7 -46 -3 -29 -11 -37 -64 -67 -34 -18 -67 -44 -74 -56 -7
-13 -23 -29 -37 -36 -28 -15 -53 -57 -53 -89 0 -100 125 -139 395 -124 83 4
204 8 270 9 66 1 133 7 148 13 22 9 38 33 72 104 89 189 88 294 -4 573 -61
184 -63 194 -68 315 -4 116 -40 362 -78 536 -12 52 -13 78 -5 98 16 42 12 74
-17 145 -23 57 -27 84 -31 196 -3 108 0 144 17 210 26 105 36 167 66 440 28
250 42 328 80 456 34 113 48 257 36 357 -11 84 -37 161 -95 282 -42 87 -45
123 -15 214 21 65 21 65 3 168 -26 139 -22 200 20 358 48 184 60 285 53 465
-11 305 -68 428 -292 636 -28 26 -62 62 -77 80 l-26 34 -87 -2 -87 -1 7 36 c4
21 15 57 26 82 11 25 23 65 26 90 3 25 12 55 19 67 30 48 15 91 -76 218 -28
38 -50 80 -50 92 0 27 -31 45 -90 53 -41 5 -44 7 -45 35 0 41 -31 44 -67 8z
m-318 -948 c0 -8 -4 -15 -10 -15 -5 0 -10 7 -10 15 0 8 5 15 10 15 6 0 10 -7
10 -15z m239 -65 c18 -30 18 -31 -6 -80 -19 -40 -23 -60 -18 -94 6 -37 4 -46
-12 -55 -23 -12 -246 -51 -291 -51 -41 0 -56 27 -47 83 10 59 20 73 68 102 24
13 54 36 67 50 18 19 34 25 64 25 23 0 64 11 91 24 28 14 53 25 58 25 4 1 16
-13 26 -29z m-1371 -98 c2 -18 -1 -32 -6 -32 -12 0 -34 49 -26 61 11 19 29 2
32 -29z m-60 -294 c24 -24 13 -38 -28 -38 -45 0 -51 11 -18 34 27 19 31 19 46
4z m159 -64 c-3 -3 -12 -4 -19 -1 -8 3 -5 6 6 6 11 1 17 -2 13 -5z m373 -491
c0 -39 -17 -43 -30 -7 -12 31 6 76 21 53 5 -8 9 -29 9 -46z"/>
</g>
</svg>
