<?xml version="1.0" standalone="no"?>
<!DOCTYPE svg PUBLIC "-//W3C//DTD SVG 20010904//EN"
 "http://www.w3.org/TR/2001/REC-SVG-20010904/DTD/svg10.dtd">
<svg version="1.0" xmlns="http://www.w3.org/2000/svg"
 width="500.000000pt" height="500.000000pt" viewBox="0 0 500.000000 500.000000"
 preserveAspectRatio="xMidYMid meet">

<g transform="translate(0.000000,500.000000) scale(0.100000,-0.100000)"
fill="#000000" stroke="none">
<path d="M2728 4986 c-12 -9 -41 -11 -95 -9 l-78 5 -86 -89 c-98 -100 -132
-162 -107 -191 12 -12 15 -31 11 -69 -5 -52 -5 -53 20 -53 14 0 29 5 33 11 22
35 35 -112 13 -152 -10 -19 -14 -17 -68 34 -93 89 -132 102 -201 67 -61 -31
-99 -98 -119 -206 -6 -31 -15 -62 -21 -69 -6 -7 -33 -16 -61 -19 -41 -6 -55
-4 -70 10 -11 9 -19 12 -19 6 0 -16 50 -52 72 -52 18 0 19 -4 13 -37 -8 -45
-22 -63 -31 -40 -3 9 -21 25 -41 37 l-34 20 6 -22 c22 -77 43 -124 69 -149 19
-18 25 -29 15 -29 -8 0 -31 19 -51 42 l-37 43 -1 -37 c0 -31 -5 -40 -30 -53
-35 -18 -38 -31 -10 -38 29 -8 25 -25 -16 -64 -20 -19 -34 -37 -30 -40 6 -6
80 -21 129 -25 18 -2 22 -25 11 -65 -6 -21 -8 -20 -35 17 -16 22 -33 40 -37
40 -20 0 -20 -14 -2 -38 25 -32 25 -46 0 -39 -30 8 -25 -17 11 -58 38 -42 17
-49 -30 -9 -38 32 -43 10 -6 -30 28 -30 60 -33 110 -9 19 9 37 14 40 11 3 -3
13 -33 21 -67 12 -47 13 -68 5 -92 -9 -26 -7 -43 15 -105 15 -41 31 -77 35
-80 12 -7 11 33 -2 80 -8 27 -8 41 0 49 8 8 11 3 11 -17 0 -15 9 -39 20 -53
11 -14 20 -34 20 -44 0 -29 35 -23 60 9 59 77 60 78 54 57 -6 -20 -5 -20 10
-1 9 11 16 35 16 55 0 19 3 32 6 29 3 -4 23 -66 45 -140 39 -131 69 -274 69
-328 0 -16 -27 -68 -67 -131 l-68 -104 0 -125 c-1 -114 -7 -153 -67 -445 -74
-359 -93 -474 -108 -657 -13 -150 -28 -208 -82 -306 l-40 -72 37 -56 c34 -51
65 -74 100 -74 7 0 40 19 74 41 34 23 64 39 67 36 4 -4 -53 -233 -111 -442 -9
-32 -27 -62 -49 -84 -21 -20 -42 -55 -52 -85 -9 -28 -28 -77 -41 -110 -13 -32
-22 -61 -18 -64 3 -3 21 10 40 28 19 18 38 31 42 27 3 -4 1 -43 -6 -86 -7 -43
-10 -93 -6 -110 7 -33 38 -61 67 -61 24 0 29 13 17 48 -20 58 77 377 180 595
18 37 36 67 41 67 9 0 21 -157 23 -295 1 -78 -2 -96 -24 -140 -20 -37 -28 -72
-33 -136 -3 -47 -9 -101 -12 -119 -9 -43 14 -37 38 10 34 67 48 59 69 -41 14
-65 46 -99 92 -99 18 0 42 6 53 14 19 14 19 15 -4 43 -60 76 -57 57 -57 328 0
198 5 287 23 430 12 99 25 204 28 232 l7 53 73 0 c49 0 85 6 109 17 48 23 61
13 96 -72 27 -68 28 -76 28 -257 1 -151 4 -196 18 -229 15 -39 15 -46 -1 -113
-16 -65 -16 -74 -2 -115 16 -44 16 -44 -11 -78 -81 -99 -94 -117 -99 -139 -7
-29 0 -62 20 -89 14 -19 26 -20 209 -20 212 0 217 1 241 60 23 54 46 171 46
230 0 31 -15 134 -34 228 -21 104 -39 233 -46 327 -6 85 -16 187 -21 225 -6
39 -14 129 -19 200 -5 72 -14 166 -19 210 -11 81 -9 121 24 440 8 83 20 200
25 260 6 61 20 162 32 225 30 169 23 326 -21 479 -31 108 -33 119 -23 180 7
38 9 119 5 191 -4 101 -1 152 17 265 16 99 22 184 22 290 1 246 -27 352 -136
514 -39 58 -75 109 -81 113 -5 4 -27 8 -47 8 -46 0 -47 6 -17 156 l21 106 -43
109 c-37 95 -47 110 -76 124 -21 10 -33 23 -33 35 0 23 -8 25 -32 6z m-55
-836 c-3 -80 -8 -125 -15 -136 -4 -6 -44 -19 -88 -29 -70 -16 -83 -17 -91 -4
-14 22 -11 57 10 97 24 47 55 75 111 100 65 30 75 25 73 -28z m-743 -41 c0 -5
-4 -9 -10 -9 -5 0 -10 7 -10 16 0 8 5 12 10 9 6 -3 10 -10 10 -16z m-36 -234
c3 -9 -1 -18 -10 -22 -19 -7 -28 2 -21 22 8 19 23 19 31 0z m287 -438 c-8 -8
-11 -3 -11 19 1 25 2 27 11 11 8 -14 8 -22 0 -30z"/>
</g>
</svg>
