<?xml version="1.0" standalone="no"?>
<!DOCTYPE svg PUBLIC "-//W3C//DTD SVG 20010904//EN"
 "http://www.w3.org/TR/2001/REC-SVG-20010904/DTD/svg10.dtd">
<svg version="1.0" xmlns="http://www.w3.org/2000/svg"
 width="500.000000pt" height="800.000000pt" viewBox="0 0 500.000000 800.000000"
 preserveAspectRatio="xMidYMid meet">

<g transform="translate(0.000000,800.000000) scale(0.100000,-0.100000)"
fill="#000000" stroke="none">
<path d="M831 7893 c-67 -38 -146 -112 -212 -199 -44 -58 -120 -206 -140 -274
-8 -25 -28 -69 -45 -98 -18 -29 -45 -88 -59 -130 -36 -100 -79 -191 -104 -220
-30 -34 -88 -40 -123 -12 -15 12 -32 36 -37 53 l-9 32 -1 -33 c-1 -38 21 -92
48 -117 28 -25 84 -30 122 -11 17 9 34 16 37 16 3 0 2 -21 -2 -47 -3 -27 -10
-80 -15 -118 -26 -190 -135 -287 -202 -178 -26 42 -32 39 -18 -9 12 -46 61
-88 100 -88 36 0 36 -10 0 -61 -65 -88 -67 -235 -5 -309 46 -54 60 -34 19 26
-41 60 -31 161 22 216 48 50 53 41 53 -95 0 -98 -4 -136 -20 -183 -40 -115
-103 -145 -159 -77 -25 30 -31 34 -31 18 1 -30 23 -64 56 -86 68 -45 111 -19
221 131 94 129 112 135 69 22 -34 -91 -45 -145 -46 -223 0 -139 73 -249 149
-224 25 8 28 25 5 25 -26 0 -70 37 -84 70 -21 50 -8 157 28 235 33 70 52 77
52 19 0 -20 15 -90 32 -157 56 -209 43 -343 -35 -387 -22 -13 -30 -13 -48 -2
-28 18 -37 7 -14 -18 13 -14 31 -20 61 -20 36 0 47 5 73 35 43 49 59 93 67
180 4 41 10 75 13 75 8 0 37 -190 53 -339 9 -88 8 -142 -1 -235 -24 -239 -65
-389 -199 -744 -60 -155 -111 -544 -132 -992 -11 -241 -24 -368 -47 -467 -13
-57 -14 -75 -4 -87 15 -18 95 -46 132 -46 15 0 31 -4 34 -10 3 -5 21 -10 39
-10 73 0 126 -12 126 -29 0 -10 -4 -21 -9 -26 -16 -17 -108 -238 -131 -316
-37 -127 -50 -197 -60 -338 -5 -75 -17 -203 -25 -286 -9 -82 -22 -224 -30
-315 -18 -223 -59 -352 -126 -395 -65 -42 -109 -157 -109 -284 0 -87 -22 -243
-52 -359 -13 -54 -17 -87 -11 -93 16 -16 28 10 53 113 33 141 80 253 105 253
19 0 20 -9 26 -200 5 -170 9 -207 26 -245 26 -60 71 -100 140 -127 71 -27 105
-28 125 -5 41 47 21 117 -56 192 l-46 44 0 77 c0 42 5 101 10 130 6 30 15 83
20 119 8 58 22 151 50 320 5 30 20 118 34 195 14 77 32 179 40 226 8 48 19
106 25 130 5 24 15 71 21 104 6 33 23 107 37 165 14 58 28 123 32 144 8 52 31
60 31 11 0 -20 4 -55 9 -78 5 -23 17 -98 26 -167 16 -126 22 -164 49 -340 39
-244 39 -250 23 -348 -9 -52 -24 -106 -34 -120 -37 -56 -55 -109 -60 -182 -5
-70 -1 -100 26 -220 6 -25 14 -123 17 -218 6 -151 14 -196 30 -180 2 3 6 78 8
169 3 161 16 239 42 268 11 12 15 10 23 -12 6 -15 18 -60 26 -99 27 -120 75
-261 98 -289 34 -41 79 -59 144 -58 106 1 152 32 153 101 0 43 -51 93 -112
110 -50 14 -52 16 -64 60 -27 106 -69 647 -95 1208 -11 252 -1 737 21 1010 13
163 15 168 48 176 15 3 36 9 47 14 11 5 37 15 59 22 45 15 96 69 96 101 0 12
-11 112 -25 222 -15 110 -30 238 -35 285 -21 187 -41 361 -55 480 -36 299 -54
570 -55 846 l0 181 117 2 c65 0 133 6 151 12 32 10 36 9 70 -24 21 -19 55 -44
77 -55 22 -11 53 -34 69 -51 36 -38 58 -28 46 22 -8 36 -31 77 -42 77 -18 0
-7 50 13 60 27 15 49 6 49 -21 0 -20 15 -61 44 -119 8 -17 20 -25 36 -25 21 0
25 4 23 30 -1 17 -5 45 -9 63 -3 17 -2 32 2 32 5 0 31 -25 57 -55 49 -56 67
-67 67 -40 0 9 7 18 15 21 33 13 12 48 -91 152 l-106 107 -141 6 c-110 5 -172
13 -271 38 -72 17 -139 31 -149 31 -18 0 -19 5 -13 78 3 42 9 117 12 165 6 80
10 94 46 149 47 73 67 145 69 249 2 98 -21 149 -125 282 -97 126 -137 183
-172 246 -27 52 -29 60 -28 170 0 93 5 130 23 183 13 38 27 70 32 73 4 3 26
-3 47 -14 99 -51 152 -30 152 59 0 40 4 50 20 55 21 7 26 38 21 113 -1 26 3
34 24 42 36 14 40 34 16 85 -25 53 -27 75 -6 75 19 0 19 17 0 27 -13 8 -14 26
-4 143 17 208 3 281 -66 345 -17 17 -56 59 -86 95 -82 98 -114 125 -179 147
-57 20 -91 15 -159 -24z"/>
<path d="M3269 5368 c-34 -34 -59 -84 -59 -118 0 -11 -9 -25 -20 -32 -16 -11
-17 -14 -5 -28 12 -13 11 -23 -6 -70 -10 -30 -22 -83 -25 -118 -6 -56 -12 -68
-51 -112 -45 -50 -54 -83 -26 -98 13 -8 14 -17 8 -48 -4 -22 -7 -58 -6 -81 1
-23 -3 -44 -9 -48 -5 -3 -10 -21 -10 -40 0 -52 35 -80 157 -125 37 -14 48 -44
28 -79 -8 -14 -28 -79 -45 -144 -23 -95 -35 -123 -55 -139 -25 -20 -139 -164
-162 -205 -7 -13 -13 -35 -13 -51 0 -18 -11 -39 -30 -59 -33 -33 -167 -103
-199 -103 -17 0 -54 36 -284 274 -83 87 -86 91 -92 148 -4 32 -4 84 0 116 5
44 2 69 -9 97 -21 51 -21 53 18 69 18 8 41 24 50 37 25 36 56 145 56 198 0 45
-26 111 -46 118 -6 2 -18 -29 -28 -69 -10 -40 -29 -106 -42 -146 -13 -40 -24
-81 -24 -91 0 -27 -24 -43 -62 -39 -32 3 -33 4 -43 68 -9 54 -14 65 -30 65
-15 0 -22 -9 -27 -40 -20 -114 -15 -106 -67 -103 l-46 3 0 -35 c0 -32 -2 -35
-28 -32 -18 2 -29 -3 -34 -13 -10 -29 17 -186 42 -234 26 -51 44 -70 95 -96
65 -33 70 -35 90 -35 25 0 25 -5 0 -130 -11 -56 -20 -108 -20 -115 0 -8 21
-49 46 -92 26 -43 52 -87 58 -98 38 -68 145 -213 189 -258 73 -73 99 -79 331
-79 105 0 197 2 205 4 23 5 30 -46 41 -292 5 -129 13 -289 16 -355 l7 -121
-39 -16 c-21 -9 -100 -40 -174 -68 -137 -53 -174 -68 -245 -101 -22 -10 -83
-35 -135 -56 -119 -48 -114 -44 -153 -106 -96 -151 -93 -203 43 -647 16 -52
48 -156 70 -230 23 -74 77 -254 122 -400 44 -146 82 -273 85 -282 6 -19 38
-24 48 -8 3 6 24 10 45 10 21 0 42 4 45 10 9 15 25 12 25 -5 0 -31 -125 -161
-163 -169 -15 -3 -38 -8 -50 -11 -54 -11 -115 -93 -102 -136 7 -21 1 -21 330
-19 133 1 173 4 185 15 22 20 33 19 49 -6 12 -20 19 -21 97 -16 46 3 89 9 94
12 15 9 12 110 -5 210 -18 102 -23 113 -76 166 -35 35 -39 44 -39 90 0 37 -13
83 -46 167 -26 65 -68 173 -94 242 -90 235 -160 415 -169 435 -4 11 -16 37
-25 58 -20 47 -20 54 2 61 9 3 105 14 212 26 107 11 224 24 260 30 35 5 66 8
68 6 2 -2 -2 -192 -8 -422 -15 -587 6 -1010 56 -1130 18 -43 45 -54 133 -54
76 0 279 29 411 58 25 6 72 15 105 22 190 36 296 59 317 71 10 5 28 9 40 9 27
1 108 22 125 33 6 4 15 28 19 52 7 51 16 61 34 40 13 -16 5 -111 -11 -121 -5
-3 -9 -13 -9 -23 0 -19 -41 -61 -77 -80 -15 -7 -23 -21 -23 -36 l0 -25 133 0
c149 0 147 -1 184 75 33 69 63 206 63 292 0 29 6 45 24 60 18 16 26 36 31 80
4 32 13 94 21 138 18 105 18 125 -2 125 -9 0 -29 11 -46 25 -29 24 -46 29 -98
26 -28 -2 -129 -30 -145 -41 -23 -15 -158 -47 -255 -61 -80 -11 -182 -27 -205
-33 -25 -5 -172 -34 -240 -46 -97 -18 -114 -19 -119 -11 -3 5 1 41 10 81 15
72 30 172 59 380 17 121 45 473 45 565 0 57 2 64 28 81 55 35 62 51 62 135 0
76 -9 133 -52 339 -11 52 -24 119 -29 149 -5 30 -12 57 -14 61 -2 4 -16 58
-30 121 -14 63 -38 173 -54 244 -41 185 -50 280 -55 625 -5 319 -19 459 -66
650 -26 110 -44 151 -102 231 -41 57 -48 74 -48 114 0 37 3 46 14 42 9 -4 19
4 26 21 6 15 18 41 27 57 20 36 77 247 99 365 27 145 1 239 -89 327 -34 33
-75 67 -92 75 -58 29 -165 58 -214 58 -42 0 -54 -5 -82 -32z m-1054 -971 c0
-26 -20 -25 -23 2 -3 16 1 22 10 19 7 -3 13 -12 13 -21z"/>
<path d="M2165 4645 c9 -54 30 -74 22 -21 -4 22 -11 44 -18 50 -9 8 -10 1 -4
-29z"/>
<path d="M2248 4654 c-5 -4 -8 -21 -8 -38 0 -21 3 -27 11 -19 6 6 9 23 7 38
-2 15 -6 23 -10 19z"/>
<path d="M2070 4613 c0 -18 38 -63 53 -63 16 0 5 23 -23 52 -26 25 -30 27 -30
11z"/>
<path d="M2306 4591 c-10 -11 -16 -25 -14 -32 4 -13 48 27 48 43 0 14 -16 9
-34 -11z"/>
</g>
</svg>
