<?xml version="1.0" standalone="no"?>
<!DOCTYPE svg PUBLIC "-//W3C//DTD SVG 20010904//EN"
 "http://www.w3.org/TR/2001/REC-SVG-20010904/DTD/svg10.dtd">
<svg version="1.0" xmlns="http://www.w3.org/2000/svg"
 width="350.000000pt" height="800.000000pt" viewBox="0 0 350.000000 800.000000"
 preserveAspectRatio="xMidYMid meet">

<g transform="translate(0.000000,800.000000) scale(0.100000,-0.100000)"
fill="#000000" stroke="none">
<path d="M2194 7968 c-34 -30 -38 -31 -67 -19 -48 20 -83 24 -103 13 -13 -6
-40 -6 -81 0 -58 10 -64 9 -94 -13 -17 -13 -48 -41 -69 -61 -20 -21 -41 -38
-47 -38 -6 0 -41 -27 -79 -61 -38 -34 -85 -69 -104 -78 -27 -13 -34 -22 -32
-40 1 -13 -8 -38 -21 -55 -41 -54 -50 -75 -36 -92 6 -8 23 -14 36 -14 17 0 23
-4 20 -14 -3 -8 -11 -42 -18 -75 -9 -48 -9 -68 0 -88 11 -24 13 -25 30 -9 16
15 22 15 40 4 20 -12 24 -10 41 12 l19 25 10 -26 c35 -93 36 -159 3 -229 -26
-53 -44 -49 -122 26 -44 43 -87 75 -117 87 -26 10 -59 29 -73 42 -34 32 -67
38 -136 26 -184 -34 -302 -163 -334 -367 -11 -71 -31 -119 -52 -127 -7 -2 -26
0 -42 4 -19 6 -42 3 -70 -7 -76 -29 -81 -28 -124 10 -40 37 -63 35 -43 -3 23
-42 61 -61 124 -61 57 0 59 -1 52 -22 -4 -13 -13 -49 -20 -81 -8 -33 -16 -61
-19 -64 -3 -3 -11 11 -20 30 -16 39 -46 60 -71 51 -11 -5 -25 2 -41 20 -25 27
-61 36 -51 14 3 -7 17 -42 32 -78 60 -153 85 -186 149 -199 37 -8 45 -28 13
-36 -32 -8 -73 17 -127 80 -23 28 -49 53 -56 58 -22 13 -26 -11 -7 -43 13 -23
15 -35 7 -48 -18 -28 -75 -62 -105 -62 -33 0 -45 -15 -28 -36 8 -9 25 -14 45
-12 18 1 36 0 39 -4 10 -10 -33 -86 -58 -103 -13 -8 -36 -16 -51 -17 -38 -3
-51 -22 -30 -43 14 -14 28 -16 79 -10 45 4 73 2 106 -10 79 -30 90 -30 111 -4
17 21 19 22 14 4 -2 -11 -7 -40 -11 -65 -15 -103 -29 -108 -81 -29 -39 61 -72
81 -103 62 -28 -17 -26 -43 3 -43 19 0 33 -11 52 -40 34 -52 21 -74 -24 -41
-56 39 -68 18 -30 -51 24 -42 62 -68 98 -68 36 0 16 -25 -22 -28 -31 -3 -44 4
-87 42 -48 43 -81 58 -81 37 0 -15 82 -101 111 -116 45 -24 94 -18 176 20 42
19 80 35 84 35 5 0 9 -15 9 -32 1 -30 17 -83 50 -164 12 -28 11 -34 -13 -70
-32 -47 -35 -80 -7 -87 14 -3 20 -14 20 -31 0 -15 16 -59 35 -99 19 -39 35
-78 35 -85 0 -7 8 -12 18 -10 26 5 26 46 -1 112 -23 56 -24 62 -10 103 27 78
46 42 21 -40 -11 -37 -10 -41 11 -58 13 -11 33 -19 46 -19 28 0 37 -22 29 -66
-8 -45 11 -52 70 -25 30 13 52 31 64 52 9 18 33 49 53 69 20 20 38 43 41 51 3
8 9 11 13 7 4 -4 0 -19 -9 -32 -20 -31 -20 -36 -2 -36 28 0 46 42 46 107 0 35
4 63 8 63 4 0 21 -39 36 -87 16 -49 52 -146 81 -218 64 -158 92 -261 104 -383
13 -127 14 -126 -168 -333 -80 -91 -111 -155 -111 -229 0 -53 5 -78 31 -166
11 -37 8 -51 -44 -220 -32 -100 -74 -266 -97 -378 -22 -110 -58 -261 -79 -335
-89 -304 -115 -439 -136 -714 -8 -108 -22 -227 -30 -263 -20 -85 -71 -182
-140 -264 -83 -98 -84 -102 -44 -143 19 -18 43 -49 54 -67 28 -48 95 -96 144
-104 63 -10 112 8 218 80 98 66 108 70 117 55 5 -8 -102 -338 -159 -486 -14
-38 -40 -119 -56 -179 -35 -128 -51 -154 -122 -194 -58 -33 -64 -43 -103 -152
-31 -88 -62 -152 -98 -199 -30 -40 -33 -59 -11 -68 10 -3 38 16 80 56 79 76
104 73 95 -14 -1 -11 -13 -46 -26 -77 -44 -104 -28 -209 39 -252 35 -24 110
-32 125 -13 10 11 8 23 -8 58 -11 24 -20 52 -20 61 0 9 27 92 61 185 33 92 67
199 75 238 10 48 34 105 78 185 100 183 236 410 246 410 12 0 16 -32 31 -225
28 -378 26 -405 -36 -474 -54 -61 -65 -91 -59 -162 5 -46 0 -95 -15 -172 -35
-170 -6 -198 63 -62 39 76 52 94 68 95 15 0 59 -110 73 -184 9 -52 22 -87 36
-102 43 -46 201 -55 251 -15 33 27 17 59 -52 110 -33 24 -62 53 -65 65 -8 42
-25 395 -25 536 0 149 1 158 94 779 20 128 40 239 45 245 12 14 146 11 213 -5
44 -10 52 -9 110 20 76 37 139 49 154 29 6 -7 19 -35 29 -63 10 -27 36 -81 59
-120 l41 -70 -1 -160 c0 -88 -3 -221 -5 -295 l-4 -135 37 -66 c42 -74 41 -86
-6 -196 -32 -77 -33 -102 -1 -161 44 -82 32 -115 -65 -172 -23 -14 -51 -38
-63 -55 -11 -16 -35 -44 -53 -60 -60 -57 -63 -143 -7 -199 61 -61 196 -72 623
-50 217 11 245 18 272 74 44 90 79 197 95 291 22 133 11 228 -53 445 -86 294
-84 286 -94 499 -6 110 -14 221 -20 247 -5 25 -21 122 -35 215 -14 92 -29 185
-34 207 -7 27 -5 49 5 78 20 57 18 73 -17 169 -30 79 -32 95 -37 249 -4 141
-1 179 16 260 29 135 48 278 77 575 29 300 44 397 85 551 36 135 51 299 40
433 -11 127 -12 130 -81 303 -73 182 -78 212 -48 298 28 79 29 154 4 300 -21
126 -17 188 24 365 54 234 64 314 64 530 1 165 -3 221 -21 319 -43 228 -119
376 -262 509 -43 39 -87 91 -99 114 -36 73 -61 81 -206 70 -29 -2 -30 -1 -27
37 2 22 17 78 33 125 16 46 29 101 29 121 0 20 7 45 15 56 36 48 15 117 -85
279 -28 44 -50 92 -50 106 0 44 -50 73 -119 71 -33 -1 -33 -1 -28 32 10 62
-24 72 -79 24z m-344 -1188 c0 -11 -4 -20 -9 -20 -11 0 -22 26 -14 34 12 12
23 5 23 -14z m266 -92 c13 -25 13 -32 0 -56 -32 -60 -48 -120 -37 -141 16 -29
13 -56 -6 -73 -20 -17 -266 -68 -324 -68 -42 0 -49 11 -49 72 0 76 20 117 74
158 28 21 62 49 75 64 18 19 34 26 62 26 23 0 62 13 101 33 69 37 78 35 104
-15z m-1505 -91 c6 -14 7 -31 1 -47 l-9 -25 -17 32 c-9 18 -16 39 -16 48 0 23
29 18 41 -8z m29 -367 c0 -5 -2 -10 -4 -10 -3 0 -8 5 -11 10 -3 6 -1 10 4 10
6 0 11 -4 11 -10z m-92 -22 c7 -7 12 -20 12 -30 0 -14 -8 -18 -39 -18 -47 0
-59 14 -35 41 20 22 44 25 62 7z m172 -78 c0 -5 -7 -10 -15 -10 -8 0 -15 5
-15 10 0 6 7 10 15 10 8 0 15 -4 15 -10z m404 -566 c15 -40 0 -111 -20 -91 -9
9 -17 76 -11 92 8 20 23 19 31 -1z"/>
</g>
</svg>
