<?xml version="1.0" standalone="no"?>
<!DOCTYPE svg PUBLIC "-//W3C//DTD SVG 20010904//EN"
 "http://www.w3.org/TR/2001/REC-SVG-20010904/DTD/svg10.dtd">
<svg version="1.0" xmlns="http://www.w3.org/2000/svg"
 width="350.000000pt" height="650.000000pt" viewBox="0 0 350.000000 650.000000"
 preserveAspectRatio="xMidYMid meet">

<g transform="translate(0.000000,650.000000) scale(0.100000,-0.100000)"
fill="#000000" stroke="none">
<path d="M2197 6473 l-38 -27 -49 18 c-39 14 -56 16 -80 8 -19 -7 -49 -8 -82
-2 -39 6 -60 5 -78 -5 -14 -8 -39 -20 -56 -28 -18 -8 -36 -22 -40 -30 -5 -8
-29 -25 -54 -37 -25 -12 -61 -35 -81 -51 -20 -16 -57 -38 -83 -49 -38 -16 -46
-24 -41 -39 3 -10 -1 -24 -10 -31 -9 -7 -25 -26 -36 -42 -17 -24 -19 -31 -8
-44 8 -10 21 -13 37 -9 22 5 24 4 18 -17 -25 -90 -29 -117 -17 -132 10 -12 18
-13 32 -5 13 6 25 6 37 0 13 -7 22 -5 39 11 l21 20 15 -28 c26 -52 30 -91 12
-145 -26 -78 -56 -79 -148 0 -37 31 -75 53 -104 60 -25 7 -58 22 -75 34 -24
18 -42 22 -98 21 -195 -4 -333 -115 -370 -299 -7 -32 -20 -70 -29 -82 -14 -20
-22 -23 -63 -17 -33 4 -61 1 -93 -12 -43 -16 -48 -16 -78 -1 -18 9 -40 22 -49
29 -32 23 -32 -2 -1 -34 29 -29 37 -31 97 -31 36 0 66 -4 66 -8 0 -5 -6 -23
-14 -41 -8 -18 -17 -45 -21 -60 -5 -28 -25 -39 -25 -15 0 23 -47 60 -69 54
-12 -3 -33 5 -52 19 -18 13 -36 21 -41 16 -10 -10 74 -171 106 -201 14 -13 42
-27 62 -30 42 -7 51 -24 16 -29 -36 -5 -75 15 -123 64 -24 24 -51 44 -61 44
-17 0 -18 -2 -3 -31 13 -24 14 -33 4 -45 -19 -23 -50 -37 -94 -43 -59 -9 -54
-35 8 -39 26 -2 47 -6 47 -9 0 -14 -46 -73 -65 -83 -11 -5 -33 -11 -49 -12
-32 -3 -47 -25 -25 -39 8 -4 52 -8 99 -7 59 0 97 -4 122 -16 47 -20 43 -20 68
6 l20 22 -6 -34 c-11 -58 -28 -103 -41 -107 -6 -2 -25 15 -41 39 -39 56 -73
75 -107 60 -34 -15 -32 -29 6 -37 35 -8 80 -68 55 -73 -8 -2 -28 4 -45 12 -37
20 -47 7 -26 -34 18 -35 69 -70 103 -70 12 0 22 -4 22 -10 0 -5 -20 -10 -43
-10 -35 0 -53 7 -90 36 -25 20 -53 34 -61 32 -24 -5 27 -64 77 -90 55 -27 106
-26 191 6 37 14 74 26 81 26 7 0 15 -19 19 -42 4 -23 19 -63 33 -89 l27 -47
-27 -32 c-32 -37 -35 -66 -7 -73 13 -3 20 -14 20 -30 0 -13 13 -42 30 -65 16
-22 32 -53 36 -67 4 -17 12 -25 23 -23 25 5 24 43 -3 94 -22 41 -24 50 -13 77
19 45 42 49 32 6 -14 -64 -12 -73 20 -82 54 -17 60 -23 58 -61 -2 -32 0 -36
22 -36 31 0 105 29 105 41 0 13 111 121 118 115 3 -3 -2 -14 -11 -24 -21 -22
-21 -32 -4 -32 28 0 47 36 47 88 0 29 4 52 8 52 5 0 21 -33 37 -72 15 -40 51
-120 80 -178 64 -129 92 -212 104 -309 8 -59 7 -80 -4 -102 -8 -15 -64 -74
-125 -130 -66 -62 -118 -120 -130 -144 -26 -53 -25 -115 1 -190 l22 -60 -57
-145 c-30 -80 -72 -210 -91 -290 -20 -80 -65 -230 -100 -335 -80 -234 -101
-328 -120 -537 -8 -90 -22 -187 -30 -215 -20 -66 -79 -153 -154 -228 -34 -33
-61 -64 -61 -71 0 -6 11 -16 24 -22 13 -6 36 -28 52 -50 36 -50 81 -80 143
-93 64 -13 110 -1 227 62 78 42 124 59 124 46 0 -6 -126 -307 -167 -402 -22
-49 -48 -115 -56 -145 -25 -85 -51 -118 -110 -144 -64 -29 -80 -46 -105 -113
-24 -64 -61 -126 -101 -173 -64 -73 -16 -83 67 -15 61 50 76 54 92 24 9 -16 6
-32 -19 -86 -61 -130 -34 -208 82 -234 51 -11 60 -10 74 3 14 15 14 19 -6 51
-11 19 -21 40 -21 47 0 6 29 78 64 159 35 80 67 162 71 181 14 64 38 102 260
413 31 42 60 77 65 77 13 0 16 -20 30 -180 20 -224 23 -287 16 -315 -4 -15
-26 -48 -50 -73 -59 -64 -67 -82 -60 -136 5 -31 0 -73 -16 -135 -12 -50 -20
-98 -16 -106 12 -33 41 -14 82 53 27 45 47 67 59 67 28 0 63 -58 76 -127 15
-73 41 -106 94 -118 76 -18 194 -6 210 20 13 21 -7 48 -53 73 -79 43 -78 41
-92 247 -18 273 -11 378 49 700 28 151 57 300 64 330 l12 55 70 3 c39 2 99 -2
135 -8 62 -12 68 -11 127 14 37 15 81 26 108 26 44 0 46 -1 64 -43 11 -24 40
-75 66 -113 l48 -69 -8 -155 c-15 -299 -15 -300 28 -362 35 -51 36 -57 25 -88
-6 -19 -22 -52 -34 -74 -30 -53 -30 -81 2 -127 40 -58 31 -87 -37 -124 -72
-39 -176 -131 -188 -168 -14 -37 6 -86 44 -111 54 -35 174 -48 370 -40 99 4
239 9 310 9 147 2 176 11 205 57 75 121 117 267 106 370 -5 55 -43 180 -116
381 -27 76 -32 106 -36 215 -5 114 -62 473 -92 577 -6 20 -4 43 5 69 18 54 17
65 -19 142 -30 64 -33 78 -36 195 -4 110 -1 141 21 235 35 146 42 193 72 442
29 249 46 336 86 452 53 154 56 370 9 491 -12 29 -41 90 -65 136 -59 111 -64
141 -34 212 28 66 29 141 5 241 -22 92 -20 133 14 261 66 249 73 293 73 469 1
134 -3 183 -21 260 -41 180 -127 312 -272 420 -39 29 -77 64 -84 79 -30 57
-51 66 -150 66 l-91 0 3 28 c2 15 16 61 32 101 17 41 30 88 30 104 0 16 7 35
15 42 19 16 19 63 0 100 -8 15 -42 64 -75 108 -33 44 -60 89 -60 99 0 33 -36
56 -96 61 -49 4 -55 7 -52 26 3 25 -8 46 -25 46 -7 0 -29 -12 -50 -27z m-350
-969 c-9 -9 -28 6 -21 18 4 6 10 6 17 -1 6 -6 8 -13 4 -17z m264 -64 c18 -25
18 -26 -11 -86 -27 -55 -28 -64 -17 -93 10 -29 10 -34 -6 -46 -22 -16 -230
-49 -312 -50 l-60 0 -3 44 c-5 68 13 98 89 146 37 24 70 48 74 54 3 6 25 11
48 11 23 0 67 11 97 24 66 29 78 28 101 -4z m-1501 -75 c12 -14 5 -55 -9 -55
-8 0 -31 44 -31 60 0 15 26 12 40 -5z m-55 -332 c8 -24 -5 -31 -48 -26 -41 6
-44 21 -7 40 27 13 46 8 55 -14z m160 -53 c-3 -5 -11 -10 -16 -10 -6 0 -7 5
-4 10 3 6 11 10 16 10 6 0 7 -4 4 -10z m415 -496 c0 -36 -23 -48 -34 -18 -8
21 -8 59 1 67 13 13 33 -16 33 -49z"/>
</g>
</svg>
