<?xml version="1.0" standalone="no"?>
<!DOCTYPE svg PUBLIC "-//W3C//DTD SVG 20010904//EN"
 "http://www.w3.org/TR/2001/REC-SVG-20010904/DTD/svg10.dtd">
<svg version="1.0" xmlns="http://www.w3.org/2000/svg"
 width="250.000000pt" height="710.000000pt" viewBox="0 0 250.000000 710.000000"
 preserveAspectRatio="xMidYMid meet">

<g transform="translate(0.000000,710.000000) scale(0.100000,-0.100000)"
fill="#000000" stroke="none">
<path d="M1567 7070 c-25 -29 -28 -30 -49 -17 -15 10 -51 15 -102 15 l-79 0
-57 -57 c-31 -31 -88 -86 -128 -122 -45 -42 -72 -75 -72 -88 0 -11 -9 -35 -20
-53 -25 -42 -25 -68 0 -75 19 -5 20 -11 13 -89 l-6 -84 37 0 c23 0 39 5 42 15
11 29 23 15 34 -42 17 -81 -3 -193 -34 -193 -6 0 -38 28 -72 63 -88 90 -145
127 -197 127 -128 -1 -227 -120 -261 -314 -19 -111 -28 -127 -65 -120 -18 4
-42 0 -62 -10 -41 -21 -42 -21 -79 10 -38 33 -45 28 -20 -13 14 -24 29 -34 57
-38 64 -11 62 -8 45 -79 -9 -36 -18 -66 -21 -66 -3 0 -13 15 -21 33 -8 17 -24
34 -35 35 -11 2 -31 14 -44 25 l-24 22 7 -40 c4 -22 22 -76 39 -119 26 -65 38
-82 64 -95 37 -18 44 -44 11 -39 -12 2 -40 26 -62 55 -55 69 -67 73 -60 20 7
-46 -4 -62 -61 -88 -37 -17 -35 -31 5 -42 26 -7 30 -11 24 -30 -11 -38 -34
-67 -62 -80 -62 -27 -39 -57 46 -57 33 0 65 -7 83 -17 28 -16 29 -16 44 2 14
19 15 16 9 -30 -4 -27 -11 -61 -16 -75 l-9 -24 -21 34 c-12 19 -27 45 -35 58
-14 23 -47 30 -59 11 -3 -6 5 -22 19 -35 25 -23 43 -61 34 -71 -3 -2 -15 1
-27 7 -12 6 -24 9 -27 6 -18 -18 44 -116 73 -116 8 0 14 -4 14 -10 0 -25 -56
-8 -92 27 -42 41 -57 40 -35 -4 43 -81 108 -98 193 -48 50 29 64 25 64 -21 0
-12 9 -51 20 -87 20 -64 20 -65 1 -108 -17 -36 -18 -48 -8 -64 7 -11 26 -62
42 -112 17 -51 34 -93 38 -93 18 0 19 35 3 94 -17 61 -14 110 6 122 7 4 8 -11
4 -42 -7 -53 -3 -65 32 -83 17 -9 22 -20 22 -51 0 -35 3 -40 23 -40 34 0 62
24 95 83 30 53 79 109 54 60 -19 -35 -13 -50 8 -24 15 17 20 38 20 79 0 69 13
60 34 -25 9 -34 34 -118 56 -188 50 -163 72 -270 74 -370 l1 -81 -82 -125
c-45 -68 -89 -141 -98 -161 -19 -46 -20 -164 -2 -233 13 -47 11 -59 -19 -180
-18 -71 -45 -193 -59 -270 -14 -77 -53 -273 -85 -435 -61 -304 -72 -379 -90
-634 -6 -82 -15 -172 -21 -200 -9 -49 -69 -180 -126 -277 l-27 -46 23 -29 c12
-16 36 -51 52 -77 50 -82 124 -96 200 -39 20 15 56 42 80 60 33 25 45 30 47
19 2 -8 -25 -115 -59 -238 -34 -123 -74 -273 -88 -334 -30 -120 -43 -146 -95
-187 -33 -27 -46 -53 -80 -165 -9 -28 -29 -80 -46 -116 -48 -105 -35 -117 40
-35 46 50 48 51 59 30 9 -17 7 -38 -9 -101 -35 -137 -22 -214 40 -246 64 -33
93 -8 65 59 -15 36 -14 42 24 184 22 81 49 186 60 233 23 98 212 529 232 529
16 0 43 -493 29 -541 -6 -19 -24 -60 -41 -92 -27 -51 -31 -70 -35 -155 -2 -53
-8 -124 -14 -157 -13 -80 -13 -95 5 -95 9 0 28 28 46 70 18 39 35 70 40 70 18
0 40 -50 54 -124 16 -85 36 -130 60 -140 9 -3 43 -6 74 -6 97 0 115 48 42 113
-18 15 -36 40 -42 54 -5 14 -14 122 -19 240 -9 225 -2 411 25 643 18 159 53
431 61 479 l5 34 100 -6 c93 -6 102 -5 147 19 72 39 92 31 119 -45 12 -34 34
-88 48 -119 l25 -55 -6 -249 -7 -248 28 -69 27 -69 -27 -91 -27 -92 21 -61
c12 -34 21 -68 21 -75 0 -7 -29 -45 -65 -84 -95 -103 -119 -148 -113 -211 6
-61 34 -91 101 -109 48 -13 475 -3 515 12 55 21 115 230 116 404 1 112 -12
191 -70 430 -17 68 -28 153 -34 265 -11 188 -34 416 -56 569 -11 78 -13 115
-5 151 9 41 7 62 -14 142 -32 122 -34 323 -5 520 11 73 26 219 35 323 25 311
44 473 69 605 51 267 44 432 -29 659 -50 158 -52 171 -29 285 14 69 15 96 5
181 -16 147 -14 233 13 391 39 229 49 362 43 549 -12 305 -66 479 -203 650
-31 39 -63 87 -71 108 -18 45 -43 57 -114 57 -44 0 -49 2 -49 23 0 19 22 131
50 255 18 77 12 111 -40 228 -27 62 -50 119 -50 126 0 27 -32 58 -70 68 -33 9
-39 15 -42 42 -4 42 -20 45 -51 8z m-247 -1050 c0 -5 -2 -10 -4 -10 -3 0 -8 5
-11 10 -3 6 -1 10 4 10 6 0 11 -4 11 -10z m186 -79 c10 -19 8 -37 -7 -90 -13
-44 -17 -80 -13 -108 5 -35 3 -43 -14 -52 -29 -15 -181 -51 -218 -51 -29 0
-32 3 -37 38 -7 42 5 104 24 130 38 50 106 112 124 112 11 1 40 12 65 25 52
28 61 27 76 -4z m-1066 -107 c0 -13 -4 -24 -9 -24 -11 0 -21 25 -21 52 0 17 3
18 15 8 8 -7 15 -23 15 -36z m-46 -330 c8 -21 -1 -34 -24 -34 -25 0 -35 17
-20 35 16 20 36 19 44 -1z m116 -64 c0 -5 -5 -10 -11 -10 -5 0 -7 5 -4 10 3 6
8 10 11 10 2 0 4 -4 4 -10z m294 -516 c8 -30 -1 -67 -15 -59 -12 8 -12 85 0
85 5 0 12 -12 15 -26z"/>
</g>
</svg>
