<?xml version="1.0" standalone="no"?>
<!DOCTYPE svg PUBLIC "-//W3C//DTD SVG 20010904//EN"
 "http://www.w3.org/TR/2001/REC-SVG-20010904/DTD/svg10.dtd">
<svg version="1.0" xmlns="http://www.w3.org/2000/svg"
 width="250.000000pt" height="710.000000pt" viewBox="0 0 250.000000 710.000000"
 preserveAspectRatio="xMidYMid meet">

<g transform="translate(0.000000,710.000000) scale(0.100000,-0.100000)"
fill="#000000" stroke="none">
<path d="M1569 7071 c-27 -28 -32 -29 -52 -17 -14 9 -52 14 -101 14 l-79 0
-57 -57 c-31 -31 -88 -86 -128 -122 -45 -42 -72 -75 -72 -88 0 -11 -9 -35 -20
-53 -25 -42 -25 -68 0 -75 19 -5 20 -11 13 -89 l-6 -84 37 0 c23 0 39 5 42 15
11 27 22 16 34 -36 19 -77 -2 -199 -34 -199 -6 0 -38 28 -72 63 -88 90 -145
127 -197 127 -130 -1 -227 -119 -262 -322 -18 -103 -28 -119 -64 -112 -17 4
-43 -1 -64 -11 -37 -17 -60 -12 -87 19 -22 27 -31 18 -15 -14 17 -34 49 -50
97 -50 20 0 29 -4 25 -12 -2 -7 -10 -39 -17 -70 -7 -32 -16 -58 -19 -58 -3 0
-13 15 -21 33 -8 17 -24 34 -35 35 -11 2 -31 14 -44 25 l-24 22 8 -40 c3 -21
21 -75 38 -119 26 -65 38 -82 64 -95 37 -18 44 -44 11 -39 -12 2 -40 26 -62
55 -55 69 -67 73 -60 20 7 -46 -4 -62 -61 -88 -39 -18 -38 -31 3 -41 28 -8 32
-12 26 -31 -11 -39 -36 -69 -65 -80 -64 -25 -31 -57 58 -57 25 0 58 -8 74 -17
28 -16 29 -16 44 2 15 19 16 17 10 -29 -4 -27 -11 -61 -16 -75 l-10 -25 -21
34 c-12 19 -27 45 -35 58 -14 23 -47 30 -59 11 -3 -6 5 -22 19 -35 25 -23 43
-61 34 -71 -3 -2 -15 1 -27 7 -12 6 -24 9 -27 6 -18 -18 44 -116 73 -116 8 0
14 -4 14 -10 0 -25 -56 -8 -92 27 -42 41 -57 40 -35 -4 43 -81 108 -98 193
-48 50 29 64 25 64 -21 0 -12 9 -51 20 -87 20 -64 20 -65 1 -108 -17 -36 -18
-48 -8 -64 7 -11 26 -62 42 -112 17 -51 34 -93 38 -93 17 0 19 35 3 91 -20 73
-20 90 -1 115 15 18 15 15 10 -31 -6 -53 -2 -63 30 -81 14 -8 21 -23 23 -53 3
-33 7 -41 23 -41 35 0 56 18 93 79 36 59 83 111 58 64 -19 -35 -13 -50 8 -24
15 17 20 38 20 79 0 69 13 60 34 -25 9 -34 34 -118 56 -188 50 -163 72 -270
74 -370 l1 -81 -82 -125 c-45 -68 -89 -141 -98 -161 -19 -46 -20 -164 -2 -233
13 -47 11 -59 -19 -180 -18 -71 -45 -193 -59 -270 -14 -77 -53 -273 -85 -435
-62 -309 -72 -386 -90 -640 -16 -222 -30 -266 -150 -476 l-24 -41 23 -29 c12
-16 36 -51 52 -77 33 -55 84 -83 132 -73 17 3 67 34 111 67 58 44 82 57 84 46
2 -8 -25 -115 -59 -238 -34 -123 -74 -273 -88 -334 -29 -119 -44 -149 -91
-184 -34 -25 -49 -53 -79 -152 -11 -37 -34 -96 -51 -132 -48 -105 -35 -117 40
-35 46 50 48 51 59 30 9 -17 7 -38 -9 -101 -35 -137 -22 -214 40 -246 64 -33
93 -8 65 59 -15 36 -14 42 24 184 22 81 49 186 60 233 23 98 212 529 232 529
9 0 16 -80 29 -329 12 -202 10 -216 -42 -308 -26 -47 -30 -65 -34 -150 -2 -54
-8 -125 -14 -158 -13 -80 -13 -95 5 -95 9 0 28 28 46 70 18 39 35 70 40 70 18
0 40 -50 54 -124 24 -127 41 -145 131 -146 48 0 65 4 78 19 16 17 16 22 3 48
-8 15 -27 38 -41 51 -15 12 -31 34 -37 48 -16 44 -29 436 -19 600 11 183 80
778 92 789 7 7 77 8 134 1 54 -7 65 -5 109 19 81 42 93 36 135 -75 20 -52 41
-105 48 -117 9 -17 11 -84 6 -273 l-7 -250 28 -69 27 -69 -27 -91 -27 -92 21
-61 c12 -34 21 -68 21 -75 0 -8 -27 -43 -60 -78 -115 -123 -142 -193 -105
-265 32 -61 54 -65 320 -62 132 1 254 6 270 10 40 11 69 66 101 189 49 193 45
262 -32 603 -27 119 -38 193 -45 315 -10 175 -31 391 -55 557 -11 78 -12 121
-6 159 8 44 6 68 -14 143 -31 119 -33 324 -5 518 11 73 29 246 40 383 25 302
37 401 62 525 53 255 45 453 -26 679 -25 78 -45 156 -45 173 0 17 7 67 16 112
14 69 15 96 5 181 -17 147 -14 233 14 394 36 214 49 373 42 545 -11 302 -68
482 -203 650 -30 38 -62 86 -70 106 -18 44 -48 60 -114 60 -48 0 -50 1 -50 28
0 15 7 56 16 92 19 79 34 159 41 222 4 41 -2 62 -46 162 -28 63 -51 121 -51
128 0 27 -32 58 -70 68 -35 9 -40 14 -40 40 0 42 -16 45 -51 11z m-249 -1051
c0 -5 -2 -10 -4 -10 -3 0 -8 5 -11 10 -3 6 -1 10 4 10 6 0 11 -4 11 -10z m187
-81 c10 -21 9 -36 -7 -87 -13 -43 -18 -76 -14 -106 6 -38 3 -46 -14 -55 -29
-15 -181 -51 -219 -51 -29 0 -32 3 -38 39 -10 63 10 114 71 181 34 36 65 60
78 60 11 1 41 12 66 25 52 28 61 27 77 -6z m-1067 -105 c0 -13 -4 -24 -9 -24
-11 0 -21 25 -21 52 0 17 3 18 15 8 8 -7 15 -23 15 -36z m-46 -330 c8 -21 -1
-34 -24 -34 -25 0 -35 17 -20 35 16 20 36 19 44 -1z m116 -64 c0 -5 -5 -10
-11 -10 -5 0 -7 5 -4 10 3 6 8 10 11 10 2 0 4 -4 4 -10z m294 -516 c8 -30 -1
-67 -15 -59 -12 8 -12 85 0 85 5 0 12 -12 15 -26z"/>
</g>
</svg>
