<svg xmlns="http://www.w3.org/2000/svg" xmlns:xlink="http://www.w3.org/1999/xlink" version="1.1" width="1000" height="1000" viewBox="0 0 1000 1000" xml:space="preserve">
<desc>Created with Fabric.js 3.5.0</desc>
<defs>
</defs>
<rect x="0" y="0" width="100%" height="100%" fill="#ffffff"/>
<g transform="matrix(0.1413 0 0 -0.1413 499.9961 499.9868)" id="805279">
<path style="stroke: none; stroke-width: 1; stroke-dasharray: none; stroke-linecap: butt; stroke-dashoffset: 0; stroke-linejoin: miter; stroke-miterlimit: 4; is-custom-font: none; font-file-url: none; fill: rgb(0,0,0); fill-rule: nonzero; opacity: 1;" vector-effect="non-scaling-stroke" transform=" translate(-1251.9499, -3555.7653)" d="M 1569 7071 c -27 -28 -32 -29 -52 -17 c -14 9 -52 14 -101 14 l -79 0 l -57 -57 c -31 -31 -88 -86 -128 -122 c -45 -42 -72 -75 -72 -88 c 0 -11 -9 -35 -20 -53 c -25 -42 -25 -68 0 -75 c 19 -5 20 -11 13 -89 l -6 -84 l 37 0 c 23 0 39 5 42 15 c 11 27 22 16 34 -36 c 19 -77 -2 -199 -34 -199 c -6 0 -38 28 -72 63 c -88 90 -145 127 -197 127 c -130 -1 -227 -119 -262 -322 c -18 -103 -28 -119 -64 -112 c -17 4 -43 -1 -64 -11 c -37 -17 -60 -12 -87 19 c -22 27 -31 18 -15 -14 c 17 -34 49 -50 97 -50 c 20 0 29 -4 25 -12 c -2 -7 -10 -39 -17 -70 c -7 -32 -16 -58 -19 -58 c -3 0 -13 15 -21 33 c -8 17 -24 34 -35 35 c -11 2 -31 14 -44 25 l -24 22 l 8 -40 c 3 -21 21 -75 38 -119 c 26 -65 38 -82 64 -95 c 37 -18 44 -44 11 -39 c -12 2 -40 26 -62 55 c -55 69 -67 73 -60 20 c 7 -46 -4 -62 -61 -88 c -39 -18 -38 -31 3 -41 c 28 -8 32 -12 26 -31 c -11 -39 -36 -69 -65 -80 c -64 -25 -31 -57 58 -57 c 25 0 58 -8 74 -17 c 28 -16 29 -16 44 2 c 15 19 16 17 10 -29 c -4 -27 -11 -61 -16 -75 l -10 -25 l -21 34 c -12 19 -27 45 -35 58 c -14 23 -47 30 -59 11 c -3 -6 5 -22 19 -35 c 25 -23 43 -61 34 -71 c -3 -2 -15 1 -27 7 c -12 6 -24 9 -27 6 c -18 -18 44 -116 73 -116 c 8 0 14 -4 14 -10 c 0 -25 -56 -8 -92 27 c -42 41 -57 40 -35 -4 c 43 -81 108 -98 193 -48 c 50 29 64 25 64 -21 c 0 -12 9 -51 20 -87 c 20 -64 20 -65 1 -108 c -17 -36 -18 -48 -8 -64 c 7 -11 26 -62 42 -112 c 17 -51 34 -93 38 -93 c 17 0 19 35 3 91 c -20 73 -20 90 -1 115 c 15 18 15 15 10 -31 c -6 -53 -2 -63 30 -81 c 14 -8 21 -23 23 -53 c 3 -33 7 -41 23 -41 c 35 0 56 18 93 79 c 36 59 83 111 58 64 c -19 -35 -13 -50 8 -24 c 15 17 20 38 20 79 c 0 69 13 60 34 -25 c 9 -34 34 -118 56 -188 c 50 -163 72 -270 74 -370 l 1 -81 l -82 -125 c -45 -68 -89 -141 -98 -161 c -19 -46 -20 -164 -2 -233 c 13 -47 11 -59 -19 -180 c -18 -71 -45 -193 -59 -270 c -14 -77 -53 -273 -85 -435 c -62 -309 -72 -386 -90 -640 c -16 -222 -30 -266 -150 -476 l -24 -41 l 23 -29 c 12 -16 36 -51 52 -77 c 33 -55 84 -83 132 -73 c 17 3 67 34 111 67 c 58 44 82 57 84 46 c 2 -8 -25 -115 -59 -238 c -34 -123 -74 -273 -88 -334 c -29 -119 -44 -149 -91 -184 c -34 -25 -49 -53 -79 -152 c -11 -37 -34 -96 -51 -132 c -48 -105 -35 -117 40 -35 c 46 50 48 51 59 30 c 9 -17 7 -38 -9 -101 c -35 -137 -22 -214 40 -246 c 64 -33 93 -8 65 59 c -15 36 -14 42 24 184 c 22 81 49 186 60 233 c 23 98 212 529 232 529 c 9 0 16 -80 29 -329 c 12 -202 10 -216 -42 -308 c -26 -47 -30 -65 -34 -150 c -2 -54 -8 -125 -14 -158 c -13 -80 -13 -95 5 -95 c 9 0 28 28 46 70 c 18 39 35 70 40 70 c 18 0 40 -50 54 -124 c 24 -127 41 -145 131 -146 c 48 0 65 4 78 19 c 16 17 16 22 3 48 c -8 15 -27 38 -41 51 c -15 12 -31 34 -37 48 c -16 44 -29 436 -19 600 c 11 183 80 778 92 789 c 7 7 77 8 134 1 c 54 -7 65 -5 109 19 c 81 42 93 36 135 -75 c 20 -52 41 -105 48 -117 c 9 -17 11 -84 6 -273 l -7 -250 l 28 -69 l 27 -69 l -27 -91 l -27 -92 l 21 -61 c 12 -34 21 -68 21 -75 c 0 -8 -27 -43 -60 -78 c -115 -123 -142 -193 -105 -265 c 32 -61 54 -65 320 -62 c 132 1 254 6 270 10 c 40 11 69 66 101 189 c 49 193 45 262 -32 603 c -27 119 -38 193 -45 315 c -10 175 -31 391 -55 557 c -11 78 -12 121 -6 159 c 8 44 6 68 -14 143 c -31 119 -33 324 -5 518 c 11 73 29 246 40 383 c 25 302 37 401 62 525 c 53 255 45 453 -26 679 c -25 78 -45 156 -45 173 c 0 17 7 67 16 112 c 14 69 15 96 5 181 c -17 147 -14 233 14 394 c 36 214 49 373 42 545 c -11 302 -68 482 -203 650 c -30 38 -62 86 -70 106 c -18 44 -48 60 -114 60 c -48 0 -50 1 -50 28 c 0 15 7 56 16 92 c 19 79 34 159 41 222 c 4 41 -2 62 -46 162 c -28 63 -51 121 -51 128 c 0 27 -32 58 -70 68 c -35 9 -40 14 -40 40 c 0 42 -16 45 -51 11 z m -249 -1051 c 0 -5 -2 -10 -4 -10 c -3 0 -8 5 -11 10 c -3 6 -1 10 4 10 c 6 0 11 -4 11 -10 z m 187 -81 c 10 -21 9 -36 -7 -87 c -13 -43 -18 -76 -14 -106 c 6 -38 3 -46 -14 -55 c -29 -15 -181 -51 -219 -51 c -29 0 -32 3 -38 39 c -10 63 10 114 71 181 c 34 36 65 60 78 60 c 11 1 41 12 66 25 c 52 28 61 27 77 -6 z m -1067 -105 c 0 -13 -4 -24 -9 -24 c -11 0 -21 25 -21 52 c 0 17 3 18 15 8 c 8 -7 15 -23 15 -36 z m -46 -330 c 8 -21 -1 -34 -24 -34 c -25 0 -35 17 -20 35 c 16 20 36 19 44 -1 z m 116 -64 c 0 -5 -5 -10 -11 -10 c -5 0 -7 5 -4 10 c 3 6 8 10 11 10 c 2 0 4 -4 4 -10 z m 294 -516 c 8 -30 -1 -67 -15 -59 c -12 8 -12 85 0 85 c 5 0 12 -12 15 -26 z" stroke-linecap="round"/>
</g>
</svg>