<?xml version="1.0" standalone="no"?>
<!DOCTYPE svg PUBLIC "-//W3C//DTD SVG 20010904//EN"
 "http://www.w3.org/TR/2001/REC-SVG-20010904/DTD/svg10.dtd">
<svg version="1.0" xmlns="http://www.w3.org/2000/svg"
 width="500.000000pt" height="800.000000pt" viewBox="0 0 500.000000 800.000000"
 preserveAspectRatio="xMidYMid meet">

<g transform="translate(0.000000,800.000000) scale(0.100000,-0.100000)"
fill="#000000" stroke="none">
<path d="M2997 7988 c-20 -4 -56 -17 -80 -29 -59 -31 -166 -143 -205 -216 -58
-109 -89 -282 -61 -334 8 -15 17 -19 37 -14 27 5 28 4 50 -82 19 -70 30 -95
59 -125 35 -36 36 -40 42 -130 l6 -93 30 1 c17 0 37 4 46 8 11 5 24 -6 47 -41
17 -26 56 -74 86 -106 45 -49 59 -58 78 -52 23 7 80 60 111 105 l17 25 29 -30
30 -30 -20 -105 c-10 -58 -29 -132 -40 -165 -24 -65 -45 -98 -34 -53 12 46
-16 96 -28 51 -22 -83 -32 -113 -37 -113 -3 0 -5 33 -5 73 1 39 -2 86 -5 102
-8 42 -33 39 -41 -5 -5 -30 -7 -31 -8 -8 0 15 -12 40 -26 55 l-25 28 6 -86 c6
-81 -12 -577 -22 -608 -3 -10 -19 -1 -52 31 -26 25 -76 65 -112 89 -106 70
-147 114 -164 172 -18 63 -36 200 -27 208 3 4 30 14 60 24 74 24 95 47 86 94
-4 20 -7 53 -7 74 1 26 -4 40 -17 49 -16 10 -17 16 -8 36 9 20 8 26 -8 38 -44
30 -46 33 -29 59 23 36 14 56 -36 74 -35 13 -45 22 -44 39 0 16 -3 19 -12 11
-20 -16 -36 24 -38 95 -2 35 -10 75 -20 95 -10 18 -12 30 -6 26 7 -4 21 -26
31 -49 10 -22 19 -35 19 -28 1 46 -100 166 -167 197 -42 20 -74 21 -233 7
-154 -14 -218 -38 -291 -112 -139 -138 -174 -327 -109 -586 16 -65 30 -135 30
-154 0 -49 -22 -123 -60 -202 -38 -81 -48 -159 -27 -208 l15 -35 1 55 c1 42
10 74 36 129 20 41 37 72 40 69 2 -2 -8 -40 -22 -83 -36 -111 -38 -267 -6
-337 25 -55 36 -62 22 -16 -10 38 -10 131 0 168 5 18 9 4 14 -50 9 -114 28
-163 132 -335 98 -163 115 -209 96 -251 -6 -13 -7 -24 -2 -24 15 0 34 58 29
90 -6 43 5 37 31 -17 37 -75 61 -152 62 -197 1 -41 1 -41 10 -11 10 29 7 99
-5 140 -4 11 0 7 8 -10 21 -43 28 -113 18 -167 -5 -27 -6 -48 -1 -48 4 0 20
26 36 58 56 113 28 253 -88 442 l-21 35 22 -24 c35 -41 89 -139 111 -204 17
-49 20 -79 17 -139 -3 -49 -1 -75 5 -71 6 3 7 1 3 -6 -4 -6 -11 -9 -16 -6 -5
3 -8 -4 -7 -15 1 -19 2 -19 25 3 42 39 63 86 72 155 l9 67 -3 -77 c-2 -62 -1
-74 9 -61 10 13 13 5 18 -47 12 -112 12 -112 -28 -104 -29 5 -36 3 -41 -12 -3
-11 -12 -31 -20 -47 -8 -15 -12 -31 -9 -37 3 -5 8 -49 11 -98 l5 -89 -53 -28
c-180 -94 -461 -332 -630 -534 -94 -113 -186 -248 -235 -344 l-35 -70 18 -39
c17 -37 17 -39 -4 -61 -29 -30 -28 -45 3 -59 14 -6 25 -16 25 -21 0 -14 -87
-156 -128 -207 -20 -25 -62 -73 -94 -107 -32 -34 -58 -68 -58 -77 0 -8 14 -31
31 -51 35 -39 35 -37 -25 -103 -30 -33 -30 -34 -12 -48 20 -14 20 -15 -3 -62
-32 -65 -80 -145 -181 -297 -47 -72 -85 -136 -82 -143 2 -7 24 -26 48 -43 27
-18 44 -38 44 -49 0 -11 5 -20 10 -20 6 0 10 -8 10 -18 0 -31 33 -52 81 -52
36 0 48 -5 63 -25 10 -14 26 -25 35 -25 9 -1 27 -7 41 -14 21 -12 24 -20 21
-59 -3 -52 14 -73 86 -108 90 -44 173 -31 173 26 0 34 12 37 46 10 22 -17 29
-32 29 -57 0 -32 1 -33 40 -34 22 0 52 -8 68 -18 17 -11 37 -16 54 -13 15 3
38 1 52 -5 34 -12 67 -3 74 22 5 19 7 19 59 4 29 -9 56 -19 60 -22 4 -4 -2
-27 -13 -52 -55 -122 -103 -359 -114 -561 -8 -147 -21 -266 -46 -408 -25 -147
-57 -211 -104 -211 -29 0 -109 -71 -139 -123 -19 -34 -25 -62 -30 -147 -4 -73
-17 -146 -42 -240 -40 -149 -43 -169 -30 -170 6 -1 33 59 61 133 56 143 62
157 74 157 16 0 31 -108 31 -231 0 -125 1 -131 25 -155 31 -30 130 -78 205
-98 50 -13 -41 -15 -920 -18 -536 -2 152 -3 1530 -3 1378 0 2141 2 1695 5
-445 3 -798 6 -783 8 15 1 63 18 107 37 83 37 131 45 131 22 0 -8 9 -22 20
-32 18 -16 32 -17 135 -11 64 4 122 9 131 13 12 4 15 24 15 87 1 158 0 155 31
161 l28 7 0 114 c0 226 -34 675 -71 944 -11 80 -49 294 -85 475 l-66 330 1
205 c0 113 5 266 10 340 16 203 92 1080 97 1116 4 31 6 32 94 49 50 10 92 20
94 24 3 7 -8 174 -24 341 -28 286 -91 658 -146 853 -34 121 -30 240 13 422 93
386 144 854 114 1042 -27 173 -86 299 -201 425 -35 39 -65 78 -67 87 -2 21
-108 120 -140 132 -49 18 -93 165 -93 309 0 114 -16 175 -71 279 -55 103 -89
142 -151 176 -49 27 -61 29 -168 30 -63 1 -132 -2 -153 -7z m-17 -6039 c4 -32
10 -45 23 -47 30 -6 49 18 45 55 -5 45 6 41 25 -8 16 -40 18 -42 53 -36 46 8
64 23 64 54 0 23 3 24 33 18 17 -4 34 -9 36 -11 13 -12 68 -420 86 -644 25
-302 17 -567 -26 -875 -18 -131 -18 -141 -2 -152 14 -11 9 -16 -40 -38 -53
-25 -169 -54 -213 -55 -28 0 -51 -27 -59 -71 -6 -31 -3 -38 19 -52 38 -25 125
-58 176 -67 28 -5 -33 -8 -165 -8 -134 0 -193 3 -164 8 68 12 89 26 89 59 0
30 -21 55 -79 93 -60 39 -72 72 -82 222 -10 150 -35 377 -48 440 -22 98 -34
288 -56 906 -3 80 -7 166 -10 193 -3 35 -1 47 9 47 8 0 16 -8 19 -19 2 -10 17
-21 33 -25 16 -4 36 -16 44 -26 13 -16 24 -18 78 -13 56 5 62 8 62 29 0 35 19
76 33 72 6 -3 14 -24 17 -49z m-599 -583 c53 -197 92 -423 86 -500 -5 -53 -9
-63 -41 -90 -19 -17 -47 -56 -62 -86 -35 -69 -37 -151 -6 -265 14 -51 26 -137
33 -235 6 -85 12 -157 15 -159 15 -15 22 32 26 164 2 83 8 156 12 164 19 30
88 -110 125 -254 15 -55 22 -64 67 -80 35 -13 2 -14 -301 -15 -264 0 -336 3
-327 12 22 22 12 62 -29 123 -39 58 -40 62 -36 125 2 36 14 101 26 145 32 113
68 278 92 421 11 68 33 169 48 226 41 148 181 640 188 658 3 8 14 -34 24 -95
11 -60 38 -177 60 -259z"/>
</g>
</svg>
