<?xml version="1.0" standalone="no"?>
<!DOCTYPE svg PUBLIC "-//W3C//DTD SVG 20010904//EN"
 "http://www.w3.org/TR/2001/REC-SVG-20010904/DTD/svg10.dtd">
<svg version="1.0" xmlns="http://www.w3.org/2000/svg"
 width="320.000000pt" height="400.000000pt" viewBox="0 0 320.000000 400.000000"
 preserveAspectRatio="xMidYMid meet">

<g transform="translate(0.000000,400.000000) scale(0.100000,-0.100000)"
fill="#000000" stroke="none">
<path d="M2763 3919 c-43 -44 -79 -85 -81 -90 -3 -8 20 -13 34 -6 3 1 10 -6
15 -15 7 -12 22 -18 48 -18 33 0 40 4 45 25 9 36 26 21 26 -24 0 -49 14 -61
70 -61 36 0 49 4 56 19 5 10 57 58 117 106 92 74 107 91 107 116 l0 29 -180 0
-179 0 -78 -81z"/>
<path d="M1545 3890 c-3 -5 -22 -10 -40 -10 -23 0 -55 -13 -96 -40 -34 -22
-67 -40 -73 -41 -6 0 -2 -4 9 -9 17 -7 15 -9 -12 -9 -25 -1 -42 -12 -75 -47
-24 -25 -70 -60 -103 -76 -76 -38 -102 -62 -111 -102 -4 -17 -21 -70 -40 -117
-26 -71 -32 -99 -31 -155 2 -62 13 -94 33 -94 4 0 17 -11 29 -24 12 -13 27
-25 34 -27 7 -3 20 -38 27 -79 10 -50 23 -84 42 -108 50 -64 53 -69 46 -96 -6
-24 -11 -26 -54 -26 -63 0 -78 6 -95 40 -10 19 -26 31 -47 35 -18 4 -51 13
-73 20 -22 7 -62 19 -88 26 -26 6 -67 25 -91 40 -38 26 -46 27 -82 18 -21 -6
-46 -17 -54 -24 -8 -7 -25 -16 -37 -19 -11 -4 -28 -18 -37 -31 -11 -17 -26
-25 -46 -25 -23 0 -37 -10 -67 -47 -21 -26 -74 -84 -118 -128 -52 -52 -90
-101 -109 -139 -36 -76 -47 -176 -28 -261 20 -86 11 -292 -15 -365 -11 -30
-23 -64 -27 -75 -4 -11 2 -4 13 15 l20 35 -2 -50 c-1 -27 -6 -53 -12 -57 -6
-5 -5 -8 2 -8 8 0 12 -13 11 -35 -1 -19 -4 -32 -8 -30 -3 2 -4 -12 -2 -31 3
-21 0 -34 -7 -34 -6 0 -11 9 -11 19 0 10 -7 21 -15 25 -8 3 -15 4 -15 3 0 -1
13 -41 30 -90 34 -101 32 -144 -15 -217 -21 -32 -29 -59 -30 -95 -1 -28 -8
-61 -15 -75 -13 -24 -12 -25 7 -8 24 22 34 23 27 3 -4 -10 -2 -13 8 -10 10 4
19 -4 28 -25 11 -27 10 -33 -6 -53 -10 -12 -12 -16 -4 -9 8 6 18 12 22 12 12
0 9 -50 -6 -99 l-13 -45 -11 34 c-16 44 -15 49 4 25 19 -23 18 -20 -20 58 -31
64 -39 72 -25 25 5 -18 7 -46 3 -63 -6 -29 -5 -29 10 -10 11 14 14 15 10 4 -3
-9 1 -32 9 -51 15 -35 12 -102 -4 -92 -5 3 -4 -7 3 -21 9 -20 9 -31 0 -45 -10
-16 -9 -18 3 -14 10 4 15 0 15 -12 0 -9 3 -15 6 -11 4 3 15 -4 26 -16 l20 -22
-16 25 c-17 25 -22 70 -8 70 4 0 16 -24 27 -53 11 -28 21 -56 24 -61 2 -5 -2
-5 -9 -1 -9 6 -11 4 -5 -5 12 -19 7 -91 -8 -110 -6 -8 -1 -6 13 5 l24 20 -22
-36 c-12 -20 -22 -45 -22 -55 0 -14 5 -10 20 13 11 18 22 33 25 33 4 0 3 -5
-1 -12 -4 -7 -3 -8 4 -4 7 4 12 14 12 22 0 8 4 13 9 10 4 -3 13 6 20 21 12 26
23 25 27 -4 6 -40 15 -65 22 -58 11 10 9 54 -2 48 -5 -4 -7 6 -3 25 4 21 1 34
-9 43 -8 7 -20 22 -25 33 -7 13 -1 9 14 -8 16 -20 29 -27 41 -23 15 6 16 1 11
-46 -4 -28 -8 -63 -11 -76 -5 -22 -4 -22 12 -7 9 10 23 15 32 11 11 -4 12 -2
4 8 -6 7 -11 30 -10 50 l1 37 40 -43 c21 -23 43 -41 48 -40 5 2 18 -15 29 -36
11 -22 24 -42 28 -45 13 -8 -24 122 -43 150 -20 32 -18 51 11 104 20 37 24 40
21 18 -2 -15 0 -25 4 -22 5 3 9 16 9 29 0 29 19 43 31 24 6 -9 9 -10 9 -2 0 6
-6 18 -14 26 -20 20 -4 46 18 28 9 -8 17 -10 17 -5 1 5 5 -9 8 -31 4 -22 4
-44 0 -50 -11 -17 -16 -75 -6 -75 5 0 7 -14 5 -30 -3 -17 -2 -30 1 -30 4 0 14
-12 24 -28 18 -27 18 -27 11 -2 -4 14 -12 28 -18 32 -7 5 -3 13 12 23 12 9 22
25 22 35 0 10 5 22 10 25 6 4 8 10 5 15 -3 5 -1 11 4 15 18 11 5 -221 -39
-695 -6 -58 -10 -111 -10 -117 0 -10 232 -13 1124 -13 1096 0 1125 0 1131 19
4 13 12 17 25 14 17 -5 18 -3 7 20 -8 17 -14 22 -19 14 -4 -7 -8 1 -8 18 0 22
-3 26 -12 17 -7 -7 -16 -12 -20 -12 -13 0 -9 45 5 60 6 8 2 6 -10 -4 -27 -22
-31 -11 -6 16 19 21 14 31 -11 22 -24 -9 -46 -57 -46 -99 0 -40 11 -45 33 -12
9 12 16 17 16 11 1 -6 -8 -19 -19 -29 -16 -15 -22 -15 -35 -5 -8 7 -15 23 -15
37 0 30 36 103 51 103 6 0 1 8 -12 19 l-23 18 27 27 c29 29 47 33 47 11 0 -9
-11 -20 -25 -25 -14 -5 -25 -14 -25 -20 0 -24 40 2 59 38 7 14 21 22 36 22 27
0 32 -9 13 -28 -7 -7 -9 -12 -6 -12 4 0 14 7 22 16 12 12 16 12 16 2 1 -8 6
-6 15 6 8 11 15 16 15 12 0 -5 6 -4 13 2 16 13 207 54 224 48 10 -4 13 12 13
73 0 72 -2 79 -22 84 -18 5 -19 8 -8 21 10 14 9 16 -8 16 -12 0 -24 5 -27 10
-4 6 -1 9 7 8 15 -3 18 21 3 25 -14 3 -32 -53 -19 -61 8 -5 5 -21 -7 -49 -14
-32 -24 -43 -41 -44 -49 -2 -103 3 -127 13 -21 8 -29 6 -44 -13 -10 -13 -15
-30 -11 -41 4 -12 -4 -30 -23 -51 l-29 -33 -18 38 c-10 21 -21 36 -26 33 -4
-2 -15 23 -25 58 -9 34 -24 70 -32 79 -18 20 -11 35 66 136 77 101 81 109 81
175 0 94 -44 158 -100 145 -9 -2 -15 6 -15 24 -1 28 -28 57 -54 58 -9 0 -11 7
-6 28 4 15 9 41 11 57 12 88 49 262 80 369 19 67 41 148 49 181 21 90 50 433
50 580 l-1 130 -53 140 c-88 233 -124 281 -274 356 l-102 51 -91 -4 c-89 -3
-93 -2 -141 29 -88 57 -121 125 -128 266 -7 124 -22 228 -41 282 -17 46 -49
89 -62 81 -5 -3 -9 1 -9 9 0 8 4 12 9 9 4 -3 3 5 -3 18 -6 13 -38 40 -71 62
-32 21 -57 40 -55 43 7 6 79 -37 94 -56 20 -26 15 1 -7 37 -11 18 -27 35 -35
38 -8 4 -12 10 -9 15 8 14 -3 10 -20 -7 -9 -8 -16 -11 -16 -5 0 6 -6 8 -14 5
-8 -3 -17 -1 -21 5 -4 7 0 8 11 4 13 -5 15 -3 9 8 -7 11 -6 12 7 2 8 -7 18
-10 21 -6 4 3 -2 12 -13 20 -11 8 -20 21 -20 29 0 8 -3 14 -7 15 -5 0 -35 2
-67 5 -43 2 -66 9 -80 24 -20 20 -20 20 -1 36 19 15 19 15 -10 8 -42 -10 -135
-11 -135 -2 0 11 -18 10 -25 -2z m386 -257 c13 -16 12 -17 -3 -4 -10 7 -18 15
-18 17 0 8 8 3 21 -13z m46 -45 c-3 -8 -6 -5 -6 6 -1 11 2 17 5 13 3 -3 4 -12
1 -19z m-89 -474 c14 8 62 -76 62 -107 0 -24 3 -27 13 -18 8 6 17 8 20 4 4 -3
14 0 23 8 20 16 86 40 78 28 -3 -5 0 -9 5 -9 7 0 7 -7 -1 -20 -14 -22 -38 -27
-38 -8 0 6 -2 9 -5 6 -3 -3 -3 -13 1 -22 6 -15 8 -16 31 0 28 18 40 11 45 -28
3 -27 -34 -78 -58 -78 -6 0 -17 -6 -23 -14 -20 -24 -69 -30 -96 -12 -24 16
-25 15 -40 -20 -8 -20 -15 -38 -15 -40 0 -8 -47 -51 -60 -56 -22 -7 -52 25
-43 48 3 10 11 23 17 27 6 5 0 5 -14 1 -14 -3 -22 -3 -18 1 4 5 2 15 -5 23
-10 13 -9 14 2 8 10 -7 12 -3 6 15 -8 27 -32 49 -52 49 -7 0 -14 6 -14 13 -1
6 -2 19 -3 27 -1 8 2 22 6 31 9 19 58 32 59 15 0 -7 3 -6 6 2 8 21 23 13 21
-13 -3 -28 -13 -33 -22 -10 -6 16 -26 21 -26 6 0 -5 5 -22 11 -38 7 -15 13
-36 14 -45 3 -26 6 -27 53 -18 54 9 79 32 93 83 17 65 -15 115 -78 120 -14 1
-20 7 -18 18 3 12 -1 16 -11 12 -8 -3 -14 -2 -14 1 0 13 45 23 63 14 9 -5 21
-7 25 -4z m-18 -184 c0 -5 -4 -10 -10 -10 -5 0 -10 5 -10 10 0 6 5 10 10 10 6
0 10 -4 10 -10z m-987 -7 c-7 -2 -19 -2 -25 0 -7 3 -2 5 12 5 14 0 19 -2 13
-5z m865 -105 c21 -21 13 -28 -15 -16 -42 18 -50 28 -22 28 14 0 30 -5 37 -12z
m-783 -100 c14 -6 25 -17 25 -24 0 -6 7 -14 15 -18 9 -3 12 -12 8 -22 -5 -13
-3 -16 10 -11 9 3 16 3 16 -1 -3 -18 2 -24 14 -14 6 5 26 11 42 13 17 2 38 10
48 18 30 25 84 17 112 -15 18 -21 21 -31 13 -41 -15 -19 8 -43 42 -43 15 0 33
-7 40 -15 11 -13 15 -14 29 -2 9 8 30 17 47 20 26 5 33 2 43 -19 13 -30 15
-56 2 -36 -6 10 -12 7 -25 -13 -11 -16 -23 -24 -32 -21 -9 3 -12 1 -9 -4 3 -6
1 -10 -5 -10 -6 0 -9 -4 -6 -9 3 -5 -1 -12 -10 -15 -10 -4 -13 -2 -8 7 8 13
-15 -3 -54 -38 -13 -11 -25 -19 -28 -18 -2 1 -11 0 -19 -3 -8 -4 -22 -1 -30 6
-8 6 -19 9 -25 5 -6 -4 -18 -4 -28 0 -13 5 -14 8 -3 14 8 5 10 14 6 21 -6 9
-9 9 -16 -1 -5 -9 -24 3 -69 46 -33 33 -76 69 -94 80 -44 27 -118 105 -113
119 3 6 8 20 12 31 5 16 5 17 -4 5 -5 -8 -13 -11 -18 -7 -8 9 15 27 34 27 7 0
24 -5 38 -12z m815 -124 c0 -3 -11 -20 -24 -37 -37 -48 -64 -119 -87 -226 -12
-53 -43 -165 -70 -248 -27 -84 -49 -160 -49 -170 0 -15 -2 -15 -19 1 -10 9
-17 25 -14 35 5 19 -54 100 -74 100 -19 1 -89 88 -116 145 -14 30 -31 57 -36
61 -6 3 -11 11 -11 18 0 6 7 2 15 -9 14 -18 14 -18 15 9 0 43 35 99 77 126 66
43 103 83 103 112 0 15 -4 31 -10 34 -5 3 -10 14 -10 22 0 13 6 11 28 -9 33
-31 64 -48 89 -48 11 0 52 20 93 45 69 41 100 53 100 39z m91 -36 c17 -4 49
-37 49 -51 0 -5 -7 -6 -16 -3 -9 3 -20 6 -25 6 -5 0 -18 19 -29 43 -12 23 -15
34 -7 25 7 -9 20 -18 28 -20z m66 -74 c-3 -3 -12 -4 -19 -1 -8 3 -5 6 6 6 11
1 17 -2 13 -5z m-949 -80 c-10 -10 -28 6 -28 24 0 15 1 15 17 -1 9 -9 14 -19
11 -23z m-128 -17 c0 -4 4 -6 9 -2 5 3 12 -4 16 -15 5 -16 12 -19 28 -14 21 6
21 5 5 -12 -16 -16 -19 -16 -55 18 -42 39 -56 66 -23 46 11 -7 20 -16 20 -21z
m40 -70 c12 -4 12 -6 -2 -6 -19 -1 -78 46 -78 62 0 6 15 -3 33 -20 17 -17 39
-33 47 -36z m135 33 c22 -24 8 -46 -23 -36 -25 8 -37 37 -20 48 19 11 23 10
43 -12z m-505 -20 c0 -5 -4 -10 -10 -10 -5 0 -10 5 -10 10 0 6 5 10 10 10 6 0
10 -4 10 -10z m-273 -382 c-3 -8 -6 -5 -6 6 -1 11 2 17 5 13 3 -3 4 -12 1 -19z
m1030 4 c-15 -16 -14 -20 18 -45 19 -15 35 -33 35 -38 0 -6 -14 4 -31 21 -17
17 -45 34 -62 37 l-30 6 34 17 c45 23 56 24 36 2z m-10 -52 c37 -22 57 -54 50
-81 -3 -10 -1 -17 4 -13 15 9 10 -41 -7 -62 -11 -13 -17 -15 -20 -6 -3 6 -10
9 -15 6 -18 -11 -70 18 -84 47 -17 33 -19 67 -5 103 11 31 34 33 77 6z m93
-49 c-6 -12 -16 -19 -21 -15 -6 4 -4 13 7 25 21 24 29 18 14 -10z m-1150 -76
c0 -5 -5 -3 -10 5 -5 8 -10 20 -10 25 0 6 5 3 10 -5 5 -8 10 -19 10 -25z m8
-80 c0 -16 -2 -15 -8 5 -4 14 -8 34 -8 45 0 16 2 15 8 -5 4 -14 8 -34 8 -45z
m1889 43 c-3 -8 -6 -5 -6 6 -1 11 2 17 5 13 3 -3 4 -12 1 -19z m-826 -23 c15
-8 31 -20 35 -26 4 -7 -1 -7 -16 1 -28 15 -113 16 -167 1 -22 -6 -68 -30 -102
-52 -100 -67 -149 -140 -160 -238 l-6 -54 -32 27 c-47 39 -42 95 15 179 34 50
144 159 176 173 39 18 215 10 257 -11z m884 7 c-3 -3 -11 0 -18 7 -9 10 -8 11
6 5 10 -3 15 -9 12 -12z m-1948 -74 c-3 -8 -6 -5 -6 6 -1 11 2 17 5 13 3 -3 4
-12 1 -19z m2012 -38 c13 -20 13 -23 1 -15 -12 7 -11 3 3 -18 17 -26 17 -27
-3 -27 -14 0 -19 4 -14 13 5 8 2 7 -9 -2 -10 -8 -21 -10 -25 -6 -4 4 -1 10 6
12 18 7 15 23 -5 23 -15 0 -15 2 -4 9 13 8 13 12 1 26 -13 15 -11 17 9 13 13
-1 31 -14 40 -28z m-2114 -239 c-3 -12 -10 -19 -15 -16 -5 3 -10 -1 -13 -7 -2
-7 -8 -10 -12 -6 -4 4 3 18 16 32 27 28 34 27 24 -3z m60 -19 c-15 -16 -16
-15 -4 12 7 15 15 23 17 16 3 -7 -3 -19 -13 -28z m-41 -27 c-4 -8 -1 -22 6
-30 6 -7 10 -24 7 -37 -3 -21 -5 -19 -20 14 -16 35 -14 68 4 68 4 0 6 -7 3
-15z m356 -109 c0 -8 -6 -18 -13 -25 -11 -8 -13 -5 -9 19 4 29 22 33 22 6z
m138 -197 c-3 -8 -7 -3 -11 10 -4 17 -3 21 5 13 5 -5 8 -16 6 -23z m-485 -4
c4 -8 2 -17 -3 -20 -6 -4 -10 3 -10 14 0 25 6 27 13 6z m407 -40 c7 -9 10 -18
6 -22 -3 -3 -6 -1 -6 5 0 7 -7 12 -15 12 -8 0 -15 5 -15 10 0 15 16 12 30 -5z
m1280 1 c0 -8 -4 -18 -10 -21 -5 -3 -10 3 -10 14 0 12 5 21 10 21 6 0 10 -6
10 -14z m109 -9 c28 1 51 -3 51 -7 0 -5 -9 -7 -20 -5 -11 2 -20 0 -20 -4 0 -9
-25 -8 -58 3 -17 6 -30 2 -44 -11 -15 -12 -19 -13 -13 -3 16 29 40 47 47 37 3
-6 29 -10 57 -10z m-177 -19 c-8 -8 -9 -4 -5 13 4 13 8 18 11 10 2 -7 -1 -18
-6 -23z m-1645 15 c-4 -3 -1 -13 6 -22 11 -14 10 -14 -5 -2 -16 12 -16 31 -1
31 4 0 3 -3 0 -7z m1677 -8 c-4 -8 -8 -15 -10 -15 -2 0 -4 7 -4 15 0 8 4 15
10 15 5 0 7 -7 4 -15z m226 11 c0 -3 -4 -8 -10 -11 -5 -3 -10 -1 -10 4 0 6 5
11 10 11 6 0 10 -2 10 -4z m-1590 -55 c0 -17 -4 -32 -9 -35 -10 -6 -20 33 -13
52 7 23 22 12 22 -17z m170 -1 c0 -16 -2 -30 -4 -30 -2 0 -6 14 -8 30 -3 17
-1 30 4 30 4 0 8 -13 8 -30z m-211 -66 c-7 -13 -16 -24 -20 -24 -5 0 -6 -6 -4
-12 6 -16 -11 -45 -21 -35 -4 4 -7 20 -6 37 1 35 12 57 21 42 4 -6 11 -4 19 4
7 8 8 14 2 14 -5 0 -10 12 -10 28 l1 27 15 -29 c13 -24 14 -33 3 -52z m2351
-412 c0 -10 -6 -27 -14 -38 -13 -17 -13 -15 -3 19 13 41 17 46 17 19z m-4
-121 c-9 -17 -17 -33 -17 -36 0 -2 -6 -20 -14 -39 -18 -42 -18 -49 -5 -41 6 3
11 16 11 28 1 18 2 18 6 4 5 -21 -15 -50 -29 -41 -5 3 -6 20 -3 36 5 21 4 28
-4 24 -6 -4 -11 -15 -12 -24 -1 -10 -4 -7 -8 8 -7 23 -10 21 -40 -35 -17 -33
-29 -50 -26 -38 11 40 52 108 65 105 6 -1 9 2 5 8 -7 11 25 70 38 70 5 0 6 -8
2 -17 -4 -10 -9 -29 -12 -43 -2 -17 5 -9 22 23 15 27 29 47 31 44 3 -3 -2 -19
-10 -36z m24 -44 c-12 -20 -19 -41 -16 -46 4 -5 1 -13 -5 -17 -19 -11 -3 65
17 87 26 29 28 16 4 -24z m-107 -127 c-6 -25 -6 -25 16 -6 16 15 24 17 33 8 8
-8 4 -14 -15 -23 -15 -7 -27 -18 -27 -26 0 -11 6 -10 28 3 l27 16 -25 -22
c-22 -19 -26 -20 -35 -6 -8 13 -14 11 -41 -15 -18 -17 -37 -28 -43 -25 -14 9
-14 96 -1 116 8 10 9 -4 4 -49 -7 -62 -7 -63 14 -52 28 15 55 68 54 105 -1 22
2 26 8 16 5 -8 6 -26 3 -40z m-108 -3 c-8 -20 -15 -46 -15 -57 0 -12 -4 -19
-9 -15 -10 6 -2 41 19 88 19 40 23 27 5 -16z"/>
<path d="M1985 2973 c-11 -3 -24 -10 -30 -15 -7 -8 -6 -9 3 -4 6 4 12 3 12 -2
0 -12 32 -12 47 0 7 6 10 14 7 19 -5 9 -7 10 -39 2z"/>
<path d="M920 2665 c0 -8 4 -15 10 -15 5 0 7 7 4 15 -4 8 -8 15 -10 15 -2 0
-4 -7 -4 -15z"/>
<path d="M1218 1874 c-10 -10 4 -44 18 -44 7 0 21 -11 30 -25 18 -28 44 -33
44 -10 0 9 -11 20 -25 25 -14 5 -30 21 -35 35 -9 24 -21 31 -32 19z"/>
<path d="M1277 1873 c-21 -6 -19 -38 3 -38 9 0 15 10 16 23 1 12 1 21 0 21 0
-1 -9 -3 -19 -6z"/>
<path d="M2030 3780 c0 -13 45 -24 66 -16 8 3 12 10 9 16 -8 13 -75 13 -75 0z"/>
<path d="M2227 3775 c-4 -10 5 -17 31 -25 50 -13 69 -13 75 4 9 22 -14 36 -59
36 -28 0 -44 -5 -47 -15z"/>
<path d="M2450 3738 c0 -11 10 -20 28 -24 15 -3 41 -10 59 -14 41 -10 68 7 59
38 -6 19 -13 21 -77 19 -58 -2 -69 -5 -69 -19z"/>
<path d="M2737 3704 c-8 -8 3 -34 14 -34 5 0 9 9 9 20 0 19 -11 26 -23 14z"/>
<path d="M2844 3695 c-9 -24 3 -44 31 -51 29 -7 55 10 55 36 0 29 -76 42 -86
15z"/>
<path d="M3030 3662 c0 -47 76 -84 129 -63 29 13 47 46 30 57 -5 3 -7 9 -4 14
3 5 -30 8 -75 7 -58 -1 -80 -6 -80 -15z"/>
<path d="M535 710 c-3 -6 -2 -10 4 -10 5 0 11 -8 13 -17 3 -15 5 -15 10 -3 7
18 -18 45 -27 30z"/>
<path d="M535 649 c-4 -6 -5 -12 -2 -15 2 -3 7 2 10 11 7 17 1 20 -8 4z"/>
<path d="M268 614 c-4 -3 0 -17 9 -31 15 -23 15 -27 -5 -69 -12 -24 -20 -44
-17 -44 9 0 45 79 45 98 0 22 -23 56 -32 46z"/>
<path d="M512 517 c0 -17 -8 -58 -17 -90 -9 -32 -15 -61 -12 -63 6 -7 37 98
44 149 4 22 1 37 -5 37 -5 0 -10 -15 -10 -33z"/>
<path d="M3065 291 c-59 -17 -105 -37 -115 -51 -3 -4 -14 -12 -25 -18 -11 -6
-14 -12 -7 -12 9 0 4 -15 -13 -45 -15 -25 -25 -50 -23 -57 2 -6 15 9 27 35 13
26 27 47 32 47 15 0 11 -15 -16 -61 -31 -55 -33 -80 -5 -54 25 22 26 9 3 -19
l-18 -21 23 19 c14 12 20 26 17 37 -9 28 11 58 34 52 15 -4 26 4 41 28 l22 34
-6 -32 c-5 -30 -4 -32 14 -21 32 20 37 -2 5 -27 -16 -13 -27 -27 -23 -30 3 -3
20 6 37 21 25 21 30 22 25 7 -3 -10 7 2 22 26 36 57 40 42 9 -34 -13 -33 -25
-51 -25 -39 0 22 -26 29 -47 12 -7 -6 -19 -8 -27 -5 -8 3 -22 -5 -33 -19 -10
-14 -34 -34 -53 -44 l-35 -19 148 -1 147 0 0 114 c0 88 -3 118 -15 130 -8 8
-19 26 -25 40 -11 30 -15 30 -95 7z m30 -51 c-3 -5 -14 -10 -23 -10 -15 0 -15
2 -2 10 20 13 33 13 25 0z m-45 -20 c0 -5 -2 -10 -4 -10 -3 0 -8 5 -11 10 -3
6 -1 10 4 10 6 0 11 -4 11 -10z m45 -40 c-3 -5 -13 -10 -21 -10 -8 0 -12 5 -9
10 3 6 13 10 21 10 8 0 12 -4 9 -10z m-105 -10 c0 -5 -5 -10 -11 -10 -5 0 -7
5 -4 10 3 6 8 10 11 10 2 0 4 -4 4 -10z"/>
<path d="M2850 224 c0 -11 -6 -13 -19 -9 -11 3 -22 1 -26 -5 -3 -5 2 -10 12
-10 11 0 23 -4 29 -10 6 -6 11 0 12 20 1 17 0 30 -3 30 -3 0 -5 -7 -5 -16z"/>
<path d="M2837 133 c-4 -3 -7 -11 -7 -17 0 -6 5 -5 12 2 6 6 9 14 7 17 -3 3
-9 2 -12 -2z"/>
<path d="M0 52 c0 -29 4 -52 9 -52 8 0 3 90 -5 99 -2 2 -4 -19 -4 -47z"/>
<path d="M2970 79 c0 -5 5 -7 10 -4 6 3 10 8 10 11 0 2 -4 4 -10 4 -5 0 -10
-5 -10 -11z"/>
</g>
</svg>
