<?xml version="1.0" standalone="no"?>
<!DOCTYPE svg PUBLIC "-//W3C//DTD SVG 20010904//EN"
 "http://www.w3.org/TR/2001/REC-SVG-20010904/DTD/svg10.dtd">
<svg version="1.0" xmlns="http://www.w3.org/2000/svg"
 width="398.000000pt" height="627.000000pt" viewBox="0 0 398.000000 627.000000"
 preserveAspectRatio="xMidYMid meet">

<g transform="translate(0.000000,627.000000) scale(0.100000,-0.100000)"
fill="#000000" stroke="none">
<path d="M2403 6264 c7 -8 -17 -34 -32 -34 -6 0 -11 -6 -11 -14 0 -15 -11 -15
-43 -1 -27 11 -33 -2 -11 -26 l19 -22 -40 6 c-22 3 -57 3 -78 -1 -34 -6 -43
-14 -67 -57 -16 -30 -36 -51 -48 -53 -11 -2 -30 -14 -43 -28 -12 -13 -32 -24
-43 -24 -12 -1 -32 -7 -46 -15 -14 -8 -40 -14 -57 -15 -41 0 -69 -27 -82 -77
-12 -44 -53 -87 -91 -96 -37 -9 -104 -77 -127 -129 -7 -16 -17 -28 -23 -28 -5
0 -16 -13 -25 -30 -9 -17 -21 -27 -29 -24 -19 7 -76 -53 -76 -80 0 -13 -11
-34 -25 -48 -31 -31 -58 -94 -50 -117 3 -10 -3 -29 -15 -44 -11 -14 -20 -30
-20 -36 0 -6 -7 -11 -16 -11 -10 0 -14 -6 -11 -15 4 -8 2 -17 -4 -20 -5 -4 -7
-10 -4 -15 3 -5 3 -21 -1 -36 l-7 -27 -14 24 c-15 25 -15 23 10 -56 25 -78 36
-179 26 -225 -6 -24 -5 -56 0 -82 6 -24 6 -49 1 -58 -12 -22 29 -87 74 -120
37 -26 54 -60 31 -60 -8 0 -19 8 -24 18 -6 9 -11 11 -11 5 0 -7 12 -20 28 -29
15 -10 37 -28 48 -42 12 -14 34 -25 50 -26 16 -1 40 -8 53 -15 33 -18 86 -17
134 4 10 4 19 6 21 4 2 -2 31 -56 64 -119 66 -125 122 -254 122 -283 0 -35 29
-87 60 -106 17 -10 56 -26 86 -36 32 -10 63 -28 77 -45 32 -38 75 -217 82
-345 9 -142 9 -142 54 -156 36 -11 45 -9 105 20 35 17 69 31 74 31 5 0 21 -9
36 -21 20 -16 26 -29 26 -60 0 -61 28 -82 100 -77 l58 4 6 -37 c8 -51 67 -104
105 -94 14 4 50 9 78 12 51 5 53 4 70 -28 53 -96 127 -145 207 -136 71 7 212
69 271 118 28 23 67 53 89 66 33 21 42 23 62 13 46 -25 126 -116 155 -176 47
-100 47 -113 0 -168 -50 -58 -82 -119 -128 -245 -19 -53 -52 -127 -73 -166
-21 -38 -85 -174 -143 -301 -57 -127 -156 -331 -221 -453 -143 -268 -214 -424
-266 -579 -38 -115 -190 -644 -257 -897 -52 -197 -45 -189 -101 -125 -156 177
-438 586 -510 739 l-45 96 -2 120 c-1 107 -6 133 -37 235 -20 63 -41 150 -48
194 -15 98 -30 142 -81 230 -41 72 -70 157 -62 187 7 26 43 37 175 54 236 31
323 63 369 139 23 38 24 85 3 155 -16 55 -20 113 -13 188 2 29 -2 47 -14 61
-13 14 -16 29 -11 65 10 68 -2 116 -32 127 -13 5 -23 13 -22 17 1 5 -4 25 -11
47 -15 42 -13 48 41 135 16 26 28 59 28 78 0 30 -5 36 -37 49 -48 20 -103 11
-103 -17 0 -11 -10 -30 -22 -43 -37 -38 -62 -70 -77 -98 -7 -14 -24 -30 -36
-36 -20 -10 -25 -7 -35 19 -7 16 -10 47 -7 69 3 22 2 40 -3 40 -8 0 -25 48
-22 62 1 4 -4 5 -11 3 -8 -3 -13 6 -14 27 -1 18 -11 51 -22 73 -22 41 -28 80
-11 70 6 -3 10 0 10 8 0 17 34 12 59 -7 12 -9 12 -8 3 10 -6 11 -9 30 -6 41 5
17 9 15 44 -20 l39 -39 33 38 c21 24 29 39 20 42 -6 2 -12 10 -12 18 0 8 -8
14 -19 14 -14 0 -21 10 -25 35 -4 20 -4 40 -1 45 11 17 -23 80 -43 80 -10 0
-25 12 -32 28 -8 15 -32 49 -53 75 -22 27 -40 59 -39 73 0 14 -5 21 -11 17 -6
-3 -7 -1 -3 5 10 16 -25 74 -41 68 -6 -3 -17 2 -24 10 -10 12 -9 13 7 7 16 -6
17 -5 4 9 -8 9 -18 14 -22 12 -4 -2 -9 0 -13 6 -3 5 -17 10 -30 10 -13 0 -30
7 -39 15 -8 9 -17 11 -21 6 -6 -11 -35 -4 -33 7 2 20 -3 25 -12 12 -7 -12 -12
-12 -22 -2 -6 6 -26 12 -43 12 -38 0 -60 14 -50 30 5 9 4 11 -3 6 -15 -9 -15
-7 -1 32 6 18 15 29 20 26 5 -3 9 0 9 7 0 6 8 9 20 6 11 -3 20 -1 20 4 0 5 4
9 10 9 5 0 9 -10 7 -22 -1 -18 4 -24 25 -26 14 -2 32 -10 38 -18 7 -8 17 -14
22 -14 5 0 30 -17 56 -38 l46 -37 -29 50 c-16 28 -37 59 -47 71 -10 11 -18 28
-18 37 0 9 -5 17 -11 17 -29 0 -52 71 -28 86 6 3 8 17 4 31 -9 39 -57 104 -71
99 -7 -3 -16 0 -20 6 -4 7 -3 8 4 4 17 -10 15 -1 -2 13 -12 10 -14 8 -12 -14
l3 -25 -35 20 c-26 16 -33 17 -29 6 5 -12 1 -13 -19 -5 -14 5 -30 6 -36 3 -6
-4 -8 -2 -5 3 14 23 -108 39 -133 18 -8 -7 -31 -16 -50 -20 -41 -8 -99 -27
-155 -50 -31 -13 -36 -13 -25 -2 15 14 62 32 163 62 31 10 57 22 57 27 0 6 -8
7 -17 4 -9 -4 -36 -10 -60 -13 -23 -3 -40 -10 -37 -14 3 -5 -3 -9 -13 -10 -10
0 -39 -4 -65 -8 -36 -6 -45 -5 -41 6 7 17 -14 17 -66 -2 -26 -9 -41 -10 -41
-3 0 6 -10 8 -27 3 -16 -4 -37 -8 -48 -9 -11 -2 -57 -24 -102 -50 -54 -31
-101 -50 -139 -56 -31 -5 -64 -16 -74 -25 -9 -8 -24 -15 -33 -15 -9 0 -22 -9
-30 -20 -9 -13 -20 -18 -31 -14 -9 3 -16 2 -16 -4 0 -5 -10 -7 -23 -5 -14 3
-38 -7 -66 -27 -24 -18 -60 -34 -82 -36 -64 -8 -184 -68 -205 -103 -10 -17
-22 -31 -26 -31 -4 0 -8 -853 -8 -1895 l0 -1895 1990 0 1990 0 0 2683 0 2684
-34 44 c-18 24 -47 80 -65 124 -28 72 -60 129 -149 275 -16 25 -57 68 -92 96
-37 30 -70 67 -79 87 -12 29 -23 38 -61 48 -67 18 -90 32 -145 87 -41 41 -59
51 -97 57 -26 4 -49 13 -52 21 -3 8 -17 14 -31 14 -15 0 -41 11 -59 25 l-33
25 -343 0 c-189 0 -341 -3 -337 -6z m647 -1336 c0 -5 -9 -3 -20 4 -11 7 -20
16 -20 20 0 5 9 3 20 -4 11 -7 20 -16 20 -20z m-1696 -204 c3 -8 2 -12 -4 -9
-6 3 -10 10 -10 16 0 14 7 11 14 -7z m1626 -69 c0 -19 -4 -35 -10 -35 -5 0
-10 -6 -10 -13 0 -8 -13 -26 -30 -40 -16 -15 -30 -24 -30 -21 0 4 -7 1 -15 -6
-17 -14 -21 0 -4 17 8 8 6 13 -9 17 -29 9 -37 36 -11 36 11 0 18 3 16 8 -3 4
6 15 19 25 23 17 23 17 17 0 -3 -10 -3 -15 1 -11 7 5 13 26 15 51 1 4 12 7 26
7 22 0 25 -4 25 -35z m-1504 -102 c-4 -4 -11 -1 -16 7 -16 25 -11 35 7 17 9
-9 13 -20 9 -24z m821 17 c-1 -22 -17 -28 -17 -7 0 12 9 27 16 27 2 0 2 -9 1
-20z m63 8 c0 -6 3 -9 6 -5 11 10 30 -17 32 -45 2 -30 -7 -35 -26 -16 -9 9 -9
15 1 26 11 13 9 14 -13 2 -14 -8 -29 -13 -34 -12 -5 2 -13 -3 -18 -10 -6 -8
-8 -3 -6 17 2 17 8 35 13 42 13 16 45 17 45 1z m-850 -48 c0 -5 -4 -10 -9 -10
-6 0 -13 5 -16 10 -3 6 1 10 9 10 9 0 16 -4 16 -10z m101 -20 c42 4 56 0 56
-13 0 -19 -62 -20 -81 -2 -8 8 -21 15 -28 15 -10 0 -9 3 2 10 9 6 17 5 21 -1
3 -6 17 -10 30 -9z m-371 -354 c0 -2 -7 -6 -15 -10 -8 -3 -15 -1 -15 4 0 6 7
10 15 10 8 0 15 -2 15 -4z m-45 -16 c-3 -5 -12 -10 -18 -10 -7 0 -6 4 3 10 19
12 23 12 15 0z m-65 -30 c-24 -15 -36 -11 -14 4 10 8 21 12 24 10 2 -3 -2 -9
-10 -14z m-86 -51 c-10 -11 -28 -26 -39 -32 -13 -7 -10 0 10 21 33 35 60 45
29 11z m-562 -61 c-7 -7 -12 -8 -12 -2 0 14 12 26 19 19 2 -3 -1 -11 -7 -17z
m498 2 c0 -5 -8 -10 -17 -10 -15 0 -16 2 -3 10 19 12 20 12 20 0z m-36 -59
c-33 -37 -58 -70 -125 -174 -17 -26 -34 -46 -37 -43 -3 3 2 14 11 24 10 10 17
23 17 28 0 5 13 25 30 44 16 19 29 39 30 44 0 12 90 116 100 116 5 0 -7 -17
-26 -39z m-264 -234 c0 -2 -10 -12 -22 -23 l-23 -19 19 23 c18 21 26 27 26 19z
m83 -21 c-13 -22 -61 -76 -68 -76 -3 0 11 20 32 45 37 45 51 57 36 31z m-143
-9 c0 -2 -10 -12 -22 -23 l-23 -19 19 23 c18 21 26 27 26 19z m1787 -48 c-1
-21 -4 -35 -6 -33 -2 2 -12 -1 -22 -7 -16 -8 -19 -6 -19 13 0 42 11 64 30 64
16 0 19 -7 17 -37z m-1777 28 c0 -2 -15 -16 -32 -33 l-33 -29 29 33 c28 30 36
37 36 29z m917 -113 c-3 -3 -12 -4 -19 -1 -8 3 -5 6 6 6 11 1 17 -2 13 -5z
m-172 -35 c1 -8 -4 -17 -10 -21 -6 -5 -6 -8 2 -8 7 0 16 7 21 15 5 10 15 13
26 9 14 -5 15 -9 4 -15 -9 -6 -9 -9 -1 -9 6 0 19 7 28 16 19 19 33 11 16 -9
-19 -23 -110 -77 -104 -61 7 19 -2 18 -23 -3 -15 -15 -15 -17 0 -22 12 -5 6
-16 -29 -53 -25 -26 -42 -53 -40 -60 3 -7 1 -19 -4 -27 -8 -12 -11 -12 -25 1
-8 9 -13 18 -10 21 3 2 -2 7 -10 10 -10 4 -22 -4 -33 -23 -9 -17 -25 -30 -35
-30 -9 0 -20 -4 -23 -10 -3 -5 0 -8 7 -5 22 8 42 -11 33 -31 -7 -17 -8 -16
-14 6 l-7 25 -12 -22 c-7 -12 -12 -29 -12 -38 0 -9 -16 -33 -34 -53 -19 -20
-33 -39 -30 -41 3 -3 9 1 14 9 8 13 10 12 10 -2 0 -11 -8 -18 -20 -18 -26 0
-47 -39 -29 -52 11 -7 11 -11 1 -15 -6 -2 -10 -9 -6 -14 10 -16 -8 -9 -22 9
-13 16 -14 16 -8 0 4 -12 1 -18 -10 -18 -9 0 -16 -4 -16 -10 0 -11 -30 -13
-54 -4 -9 3 -16 12 -16 20 0 7 -6 11 -14 8 -9 -3 -15 4 -18 20 -3 14 -1 26 4
26 5 0 7 9 3 19 -3 11 1 26 11 35 9 10 14 19 11 23 -3 3 3 14 13 25 10 11 16
26 13 34 -3 8 0 14 6 14 20 0 26 4 49 32 13 16 27 26 32 23 4 -3 13 2 20 10 7
8 29 20 49 26 34 10 37 14 33 40 -2 16 0 29 6 29 6 0 21 20 33 45 12 25 25 43
27 40 6 -5 42 40 42 52 0 14 40 32 84 38 21 2 41 7 44 10 10 9 27 -1 27 -16z
m151 12 c-8 -12 -46 -21 -46 -11 0 5 10 11 23 13 12 2 23 5 25 6 2 0 1 -3 -2
-8z m-926 -25 c0 -2 -8 -10 -17 -17 -16 -13 -17 -12 -4 4 13 16 21 21 21 13z
m-80 -79 c0 -2 -12 -14 -27 -28 l-28 -24 24 28 c23 25 31 32 31 24z m10 -71
c0 -2 -8 -10 -17 -17 -16 -13 -17 -12 -4 4 13 16 21 21 21 13z m805 -76 c-3
-5 -12 -10 -18 -10 -7 0 -6 4 3 10 19 12 23 12 15 0z m-63 -42 c-7 -7 -12 -8
-12 -2 0 14 12 26 19 19 2 -3 -1 -11 -7 -17z m258 -48 c0 -5 -5 -10 -11 -10
-5 0 -7 5 -4 10 3 6 8 10 11 10 2 0 4 -4 4 -10z m41 -8 c-7 -2 -18 1 -23 6 -8
8 -4 9 13 5 13 -4 18 -8 10 -11z m-156 -232 c3 -5 2 -10 -4 -10 -5 0 -13 5
-16 10 -3 6 -2 10 4 10 5 0 13 -4 16 -10z m-467 -20 c-11 -18 -28 -27 -28 -16
0 2 -3 11 -6 20 -5 12 0 16 20 16 24 0 25 -2 14 -20z m439 -22 c-3 -8 -6 -5
-6 6 -1 11 2 17 5 13 3 -3 4 -12 1 -19z m2343 -184 c-6 -14 -7 -36 -4 -49 4
-17 0 -26 -14 -34 -27 -15 -39 -14 -24 1 7 7 12 18 12 25 0 17 27 83 34 83 3
0 1 -12 -4 -26z m-1675 -94 c-32 -33 -37 -34 -29 -3 4 12 16 24 28 26 11 2 23
5 25 6 3 0 -8 -12 -24 -29z m-556 -591 c20 23 31 19 24 -9 -7 -27 -42 -36 -61
-16 -11 10 -12 16 -4 16 7 0 13 8 13 18 1 11 3 9 6 -6 l5 -23 17 20z m46 -39
c3 -5 -2 -10 -11 -10 -16 0 -16 -1 2 -15 22 -17 12 -20 -19 -4 -21 10 -21 9 2
-10 27 -25 6 -30 -25 -6 -19 15 -19 15 5 35 26 22 37 25 46 10z m-21 -76 c9
-8 16 -11 16 -5 0 12 32 2 42 -13 12 -18 9 -26 -9 -27 -15 0 -15 -2 2 -8 11
-5 23 -7 26 -5 3 2 4 -7 2 -20 -4 -17 1 -25 17 -29 12 -3 19 -10 15 -16 -3 -6
-2 -11 4 -11 17 0 4 -35 -15 -39 -16 -3 -17 -1 -5 13 9 11 10 16 2 16 -6 0
-15 -10 -20 -22 -8 -22 -9 -22 -25 9 -9 18 -24 37 -33 42 -16 9 -16 10 4 11
12 0 23 -5 25 -12 3 -9 6 -9 12 1 5 8 1 14 -13 18 -11 3 -23 13 -26 24 -3 10
-14 21 -24 24 -12 3 -18 16 -19 35 -1 35 1 36 22 14z m123 -219 c7 -16 7 -25
1 -25 -6 0 -7 -8 -4 -17 4 -13 0 -11 -14 6 -21 24 -25 43 -13 54 11 12 18 8
30 -18z m5 -86 c17 -9 18 -13 7 -20 -12 -8 -12 -11 1 -20 12 -9 11 -10 -8 -6
-12 3 -20 1 -17 -3 3 -5 1 -11 -5 -15 -5 -3 -10 3 -10 14 0 10 -5 21 -12 23
-9 3 -8 9 2 21 18 20 17 20 42 6z"/>
<path d="M2916 4604 c-4 -9 -4 -19 -1 -22 3 -3 5 0 5 7 0 7 5 9 10 6 6 -3 10
-2 10 4 0 18 -18 21 -24 5z"/>
<path d="M1215 3320 c-3 -5 -1 -10 4 -10 6 0 11 5 11 10 0 6 -2 10 -4 10 -3 0
-8 -4 -11 -10z"/>
<path d="M1140 3275 l-25 -14 28 -1 c17 0 27 5 27 15 0 18 1 18 -30 0z"/>
<path d="M995 3210 c-3 -5 -1 -10 4 -10 6 0 11 5 11 10 0 6 -2 10 -4 10 -3 0
-8 -4 -11 -10z"/>
<path d="M1515 1880 c3 -5 13 -10 21 -10 8 0 12 5 9 10 -3 6 -13 10 -21 10 -8
0 -12 -4 -9 -10z"/>
<path d="M3124 6255 c24 -18 49 -20 44 -2 -3 6 -18 13 -34 15 -28 2 -28 2 -10
-13z"/>
<path d="M2095 6109 c-4 -6 -5 -12 -2 -15 2 -3 7 2 10 11 7 17 1 20 -8 4z"/>
<path d="M1996 3113 c-4 -10 -1 -13 13 -8 14 4 21 0 26 -14 4 -13 12 -17 27
-13 20 5 20 5 -3 23 -33 25 -57 29 -63 12z"/>
</g>
</svg>
